%TF.GenerationSoftware,KiCad,Pcbnew,8.0.3*%
%TF.CreationDate,2024-07-07T22:20:17-04:00*%
%TF.ProjectId,Aplicaciones Car RC,41706c69-6361-4636-996f-6e6573204361,rev?*%
%TF.SameCoordinates,Original*%
%TF.FileFunction,Drillmap*%
%TF.FilePolarity,Positive*%
%FSLAX45Y45*%
G04 Gerber Fmt 4.5, Leading zero omitted, Abs format (unit mm)*
G04 Created by KiCad (PCBNEW 8.0.3) date 2024-07-07 22:20:17*
%MOMM*%
%LPD*%
G01*
G04 APERTURE LIST*
%ADD10C,0.050000*%
%ADD11C,0.200000*%
%ADD12C,0.100000*%
%ADD13C,0.110000*%
%ADD14C,0.119000*%
%ADD15C,0.130000*%
G04 APERTURE END LIST*
D10*
X2180000Y-1900000D02*
X18820000Y-1900000D01*
X18820000Y-16300000D01*
X2180000Y-16300000D01*
X2180000Y-1900000D01*
D11*
D12*
X9488500Y-7402500D02*
X9563500Y-7477500D01*
X9563500Y-7402500D02*
X9488500Y-7477500D01*
X9615500Y-7402500D02*
X9690500Y-7477500D01*
X9690500Y-7402500D02*
X9615500Y-7477500D01*
X9742500Y-7402500D02*
X9817500Y-7477500D01*
X9817500Y-7402500D02*
X9742500Y-7477500D01*
X10515500Y-9598500D02*
X10590500Y-9673500D01*
X10590500Y-9598500D02*
X10515500Y-9673500D01*
X10642500Y-9598500D02*
X10717500Y-9673500D01*
X10717500Y-9598500D02*
X10642500Y-9673500D01*
X10769500Y-9598500D02*
X10844500Y-9673500D01*
X10844500Y-9598500D02*
X10769500Y-9673500D01*
X11748500Y-9702500D02*
X11823500Y-9777500D01*
X11823500Y-9702500D02*
X11748500Y-9777500D01*
X11875500Y-9702500D02*
X11950500Y-9777500D01*
X11950500Y-9702500D02*
X11875500Y-9777500D01*
X12002500Y-9702500D02*
X12077500Y-9777500D01*
X12077500Y-9702500D02*
X12002500Y-9777500D01*
X12367500Y-11555000D02*
X12442500Y-11630000D01*
X12442500Y-11555000D02*
X12367500Y-11630000D01*
X12367500Y-11682000D02*
X12442500Y-11757000D01*
X12442500Y-11682000D02*
X12367500Y-11757000D01*
X12367500Y-11809000D02*
X12442500Y-11884000D01*
X12442500Y-11809000D02*
X12367500Y-11884000D01*
X12367500Y-12635000D02*
X12442500Y-12710000D01*
X12442500Y-12635000D02*
X12367500Y-12710000D01*
X12367500Y-12762000D02*
X12442500Y-12837000D01*
X12442500Y-12762000D02*
X12367500Y-12837000D01*
X12367500Y-12889000D02*
X12442500Y-12964000D01*
X12442500Y-12889000D02*
X12367500Y-12964000D01*
X14125500Y-8756000D02*
X14200500Y-8831000D01*
X14200500Y-8756000D02*
X14125500Y-8831000D01*
X14252500Y-8756000D02*
X14327500Y-8831000D01*
X14327500Y-8756000D02*
X14252500Y-8831000D01*
X14379500Y-8756000D02*
X14454500Y-8831000D01*
X14454500Y-8756000D02*
X14379500Y-8831000D01*
X15065500Y-8776000D02*
X15140500Y-8851000D01*
X15140500Y-8776000D02*
X15065500Y-8851000D01*
X15192500Y-8776000D02*
X15267500Y-8851000D01*
X15267500Y-8776000D02*
X15192500Y-8851000D01*
X15319500Y-8776000D02*
X15394500Y-8851000D01*
X15394500Y-8776000D02*
X15319500Y-8851000D01*
X16087500Y-14455000D02*
X16162500Y-14530000D01*
X16162500Y-14455000D02*
X16087500Y-14530000D01*
X16214500Y-14455000D02*
X16289500Y-14530000D01*
X16289500Y-14455000D02*
X16214500Y-14530000D01*
X16238500Y-8820000D02*
X16313500Y-8895000D01*
X16313500Y-8820000D02*
X16238500Y-8895000D01*
X16341500Y-14455000D02*
X16416500Y-14530000D01*
X16416500Y-14455000D02*
X16341500Y-14530000D01*
X16365500Y-8820000D02*
X16440500Y-8895000D01*
X16440500Y-8820000D02*
X16365500Y-8895000D01*
X16492500Y-8820000D02*
X16567500Y-8895000D01*
X16567500Y-8820000D02*
X16492500Y-8895000D01*
X17247500Y-14235000D02*
X17322500Y-14310000D01*
X17322500Y-14235000D02*
X17247500Y-14310000D01*
X17247500Y-14362000D02*
X17322500Y-14437000D01*
X17322500Y-14362000D02*
X17247500Y-14437000D01*
X17247500Y-14489000D02*
X17322500Y-14564000D01*
X17322500Y-14489000D02*
X17247500Y-14564000D01*
X5750000Y-3800000D02*
G75*
G02*
X5670000Y-3800000I-40000J0D01*
G01*
X5670000Y-3800000D02*
G75*
G02*
X5750000Y-3800000I40000J0D01*
G01*
X5840000Y-13480000D02*
G75*
G02*
X5760000Y-13480000I-40000J0D01*
G01*
X5760000Y-13480000D02*
G75*
G02*
X5840000Y-13480000I40000J0D01*
G01*
X6040000Y-13480000D02*
G75*
G02*
X5960000Y-13480000I-40000J0D01*
G01*
X5960000Y-13480000D02*
G75*
G02*
X6040000Y-13480000I40000J0D01*
G01*
X6305000Y-5340000D02*
G75*
G02*
X6225000Y-5340000I-40000J0D01*
G01*
X6225000Y-5340000D02*
G75*
G02*
X6305000Y-5340000I40000J0D01*
G01*
X7020000Y-3800000D02*
G75*
G02*
X6940000Y-3800000I-40000J0D01*
G01*
X6940000Y-3800000D02*
G75*
G02*
X7020000Y-3800000I40000J0D01*
G01*
X7065000Y-2340000D02*
G75*
G02*
X6985000Y-2340000I-40000J0D01*
G01*
X6985000Y-2340000D02*
G75*
G02*
X7065000Y-2340000I40000J0D01*
G01*
X7105000Y-3000000D02*
G75*
G02*
X7025000Y-3000000I-40000J0D01*
G01*
X7025000Y-3000000D02*
G75*
G02*
X7105000Y-3000000I40000J0D01*
G01*
X7575000Y-5340000D02*
G75*
G02*
X7495000Y-5340000I-40000J0D01*
G01*
X7495000Y-5340000D02*
G75*
G02*
X7575000Y-5340000I40000J0D01*
G01*
X8335000Y-2340000D02*
G75*
G02*
X8255000Y-2340000I-40000J0D01*
G01*
X8255000Y-2340000D02*
G75*
G02*
X8335000Y-2340000I40000J0D01*
G01*
X8375000Y-3000000D02*
G75*
G02*
X8295000Y-3000000I-40000J0D01*
G01*
X8295000Y-3000000D02*
G75*
G02*
X8375000Y-3000000I40000J0D01*
G01*
X9345000Y-11600000D02*
G75*
G02*
X9265000Y-11600000I-40000J0D01*
G01*
X9265000Y-11600000D02*
G75*
G02*
X9345000Y-11600000I40000J0D01*
G01*
X9520000Y-2700000D02*
G75*
G02*
X9440000Y-2700000I-40000J0D01*
G01*
X9440000Y-2700000D02*
G75*
G02*
X9520000Y-2700000I40000J0D01*
G01*
X9720000Y-2700000D02*
G75*
G02*
X9640000Y-2700000I-40000J0D01*
G01*
X9640000Y-2700000D02*
G75*
G02*
X9720000Y-2700000I40000J0D01*
G01*
X10320000Y-6725000D02*
G75*
G02*
X10240000Y-6725000I-40000J0D01*
G01*
X10240000Y-6725000D02*
G75*
G02*
X10320000Y-6725000I40000J0D01*
G01*
X10320000Y-7995000D02*
G75*
G02*
X10240000Y-7995000I-40000J0D01*
G01*
X10240000Y-7995000D02*
G75*
G02*
X10320000Y-7995000I40000J0D01*
G01*
X10615000Y-11600000D02*
G75*
G02*
X10535000Y-11600000I-40000J0D01*
G01*
X10535000Y-11600000D02*
G75*
G02*
X10615000Y-11600000I40000J0D01*
G01*
X10900000Y-7045000D02*
G75*
G02*
X10820000Y-7045000I-40000J0D01*
G01*
X10820000Y-7045000D02*
G75*
G02*
X10900000Y-7045000I40000J0D01*
G01*
X10900000Y-8315000D02*
G75*
G02*
X10820000Y-8315000I-40000J0D01*
G01*
X10820000Y-8315000D02*
G75*
G02*
X10900000Y-8315000I40000J0D01*
G01*
X11005000Y-5280000D02*
G75*
G02*
X10925000Y-5280000I-40000J0D01*
G01*
X10925000Y-5280000D02*
G75*
G02*
X11005000Y-5280000I40000J0D01*
G01*
X11340000Y-8900000D02*
G75*
G02*
X11260000Y-8900000I-40000J0D01*
G01*
X11260000Y-8900000D02*
G75*
G02*
X11340000Y-8900000I40000J0D01*
G01*
X11520000Y-7065000D02*
G75*
G02*
X11440000Y-7065000I-40000J0D01*
G01*
X11440000Y-7065000D02*
G75*
G02*
X11520000Y-7065000I40000J0D01*
G01*
X11520000Y-8335000D02*
G75*
G02*
X11440000Y-8335000I-40000J0D01*
G01*
X11440000Y-8335000D02*
G75*
G02*
X11520000Y-8335000I40000J0D01*
G01*
X11540000Y-8900000D02*
G75*
G02*
X11460000Y-8900000I-40000J0D01*
G01*
X11460000Y-8900000D02*
G75*
G02*
X11540000Y-8900000I40000J0D01*
G01*
X12140000Y-7085000D02*
G75*
G02*
X12060000Y-7085000I-40000J0D01*
G01*
X12060000Y-7085000D02*
G75*
G02*
X12140000Y-7085000I40000J0D01*
G01*
X12140000Y-8355000D02*
G75*
G02*
X12060000Y-8355000I-40000J0D01*
G01*
X12060000Y-8355000D02*
G75*
G02*
X12140000Y-8355000I40000J0D01*
G01*
X12275000Y-5280000D02*
G75*
G02*
X12195000Y-5280000I-40000J0D01*
G01*
X12195000Y-5280000D02*
G75*
G02*
X12275000Y-5280000I40000J0D01*
G01*
X12460000Y-8960000D02*
G75*
G02*
X12380000Y-8960000I-40000J0D01*
G01*
X12380000Y-8960000D02*
G75*
G02*
X12460000Y-8960000I40000J0D01*
G01*
X12660000Y-8960000D02*
G75*
G02*
X12580000Y-8960000I-40000J0D01*
G01*
X12580000Y-8960000D02*
G75*
G02*
X12660000Y-8960000I40000J0D01*
G01*
X12760000Y-7085000D02*
G75*
G02*
X12680000Y-7085000I-40000J0D01*
G01*
X12680000Y-7085000D02*
G75*
G02*
X12760000Y-7085000I40000J0D01*
G01*
X12760000Y-8355000D02*
G75*
G02*
X12680000Y-8355000I-40000J0D01*
G01*
X12680000Y-8355000D02*
G75*
G02*
X12760000Y-8355000I40000J0D01*
G01*
X13250000Y-14072500D02*
G75*
G02*
X13170000Y-14072500I-40000J0D01*
G01*
X13170000Y-14072500D02*
G75*
G02*
X13250000Y-14072500I40000J0D01*
G01*
X13270000Y-13412500D02*
G75*
G02*
X13190000Y-13412500I-40000J0D01*
G01*
X13190000Y-13412500D02*
G75*
G02*
X13270000Y-13412500I40000J0D01*
G01*
X13290000Y-11572500D02*
G75*
G02*
X13210000Y-11572500I-40000J0D01*
G01*
X13210000Y-11572500D02*
G75*
G02*
X13290000Y-11572500I40000J0D01*
G01*
X13290000Y-12172500D02*
G75*
G02*
X13210000Y-12172500I-40000J0D01*
G01*
X13210000Y-12172500D02*
G75*
G02*
X13290000Y-12172500I40000J0D01*
G01*
X13290000Y-12800000D02*
G75*
G02*
X13210000Y-12800000I-40000J0D01*
G01*
X13210000Y-12800000D02*
G75*
G02*
X13290000Y-12800000I40000J0D01*
G01*
X13570000Y-8122500D02*
G75*
G02*
X13490000Y-8122500I-40000J0D01*
G01*
X13490000Y-8122500D02*
G75*
G02*
X13570000Y-8122500I40000J0D01*
G01*
X13570000Y-9392500D02*
G75*
G02*
X13490000Y-9392500I-40000J0D01*
G01*
X13490000Y-9392500D02*
G75*
G02*
X13570000Y-9392500I40000J0D01*
G01*
X13575000Y-6897500D02*
G75*
G02*
X13495000Y-6897500I-40000J0D01*
G01*
X13495000Y-6897500D02*
G75*
G02*
X13575000Y-6897500I40000J0D01*
G01*
X13595000Y-6277500D02*
G75*
G02*
X13515000Y-6277500I-40000J0D01*
G01*
X13515000Y-6277500D02*
G75*
G02*
X13595000Y-6277500I40000J0D01*
G01*
X13595000Y-7497500D02*
G75*
G02*
X13515000Y-7497500I-40000J0D01*
G01*
X13515000Y-7497500D02*
G75*
G02*
X13595000Y-7497500I40000J0D01*
G01*
X14520000Y-14072500D02*
G75*
G02*
X14440000Y-14072500I-40000J0D01*
G01*
X14440000Y-14072500D02*
G75*
G02*
X14520000Y-14072500I40000J0D01*
G01*
X14540000Y-13412500D02*
G75*
G02*
X14460000Y-13412500I-40000J0D01*
G01*
X14460000Y-13412500D02*
G75*
G02*
X14540000Y-13412500I40000J0D01*
G01*
X14560000Y-11572500D02*
G75*
G02*
X14480000Y-11572500I-40000J0D01*
G01*
X14480000Y-11572500D02*
G75*
G02*
X14560000Y-11572500I40000J0D01*
G01*
X14560000Y-12172500D02*
G75*
G02*
X14480000Y-12172500I-40000J0D01*
G01*
X14480000Y-12172500D02*
G75*
G02*
X14560000Y-12172500I40000J0D01*
G01*
X14560000Y-12800000D02*
G75*
G02*
X14480000Y-12800000I-40000J0D01*
G01*
X14480000Y-12800000D02*
G75*
G02*
X14560000Y-12800000I40000J0D01*
G01*
X14795000Y-8137500D02*
G75*
G02*
X14715000Y-8137500I-40000J0D01*
G01*
X14715000Y-8137500D02*
G75*
G02*
X14795000Y-8137500I40000J0D01*
G01*
X14845000Y-6897500D02*
G75*
G02*
X14765000Y-6897500I-40000J0D01*
G01*
X14765000Y-6897500D02*
G75*
G02*
X14845000Y-6897500I40000J0D01*
G01*
X14865000Y-6277500D02*
G75*
G02*
X14785000Y-6277500I-40000J0D01*
G01*
X14785000Y-6277500D02*
G75*
G02*
X14865000Y-6277500I40000J0D01*
G01*
X14865000Y-7497500D02*
G75*
G02*
X14785000Y-7497500I-40000J0D01*
G01*
X14785000Y-7497500D02*
G75*
G02*
X14865000Y-7497500I40000J0D01*
G01*
X15085000Y-11910000D02*
G75*
G02*
X15005000Y-11910000I-40000J0D01*
G01*
X15005000Y-11910000D02*
G75*
G02*
X15085000Y-11910000I40000J0D01*
G01*
X15085000Y-12164000D02*
G75*
G02*
X15005000Y-12164000I-40000J0D01*
G01*
X15005000Y-12164000D02*
G75*
G02*
X15085000Y-12164000I40000J0D01*
G01*
X15085000Y-12418000D02*
G75*
G02*
X15005000Y-12418000I-40000J0D01*
G01*
X15005000Y-12418000D02*
G75*
G02*
X15085000Y-12418000I40000J0D01*
G01*
X15085000Y-12672000D02*
G75*
G02*
X15005000Y-12672000I-40000J0D01*
G01*
X15005000Y-12672000D02*
G75*
G02*
X15085000Y-12672000I40000J0D01*
G01*
X15085000Y-12926000D02*
G75*
G02*
X15005000Y-12926000I-40000J0D01*
G01*
X15005000Y-12926000D02*
G75*
G02*
X15085000Y-12926000I40000J0D01*
G01*
X15085000Y-13180000D02*
G75*
G02*
X15005000Y-13180000I-40000J0D01*
G01*
X15005000Y-13180000D02*
G75*
G02*
X15085000Y-13180000I40000J0D01*
G01*
X15085000Y-13434000D02*
G75*
G02*
X15005000Y-13434000I-40000J0D01*
G01*
X15005000Y-13434000D02*
G75*
G02*
X15085000Y-13434000I40000J0D01*
G01*
X15847000Y-11910000D02*
G75*
G02*
X15767000Y-11910000I-40000J0D01*
G01*
X15767000Y-11910000D02*
G75*
G02*
X15847000Y-11910000I40000J0D01*
G01*
X15847000Y-12164000D02*
G75*
G02*
X15767000Y-12164000I-40000J0D01*
G01*
X15767000Y-12164000D02*
G75*
G02*
X15847000Y-12164000I40000J0D01*
G01*
X15847000Y-12418000D02*
G75*
G02*
X15767000Y-12418000I-40000J0D01*
G01*
X15767000Y-12418000D02*
G75*
G02*
X15847000Y-12418000I40000J0D01*
G01*
X15847000Y-12672000D02*
G75*
G02*
X15767000Y-12672000I-40000J0D01*
G01*
X15767000Y-12672000D02*
G75*
G02*
X15847000Y-12672000I40000J0D01*
G01*
X15847000Y-12926000D02*
G75*
G02*
X15767000Y-12926000I-40000J0D01*
G01*
X15767000Y-12926000D02*
G75*
G02*
X15847000Y-12926000I40000J0D01*
G01*
X15847000Y-13180000D02*
G75*
G02*
X15767000Y-13180000I-40000J0D01*
G01*
X15767000Y-13180000D02*
G75*
G02*
X15847000Y-13180000I40000J0D01*
G01*
X15847000Y-13434000D02*
G75*
G02*
X15767000Y-13434000I-40000J0D01*
G01*
X15767000Y-13434000D02*
G75*
G02*
X15847000Y-13434000I40000J0D01*
G01*
X16065000Y-8137500D02*
G75*
G02*
X15985000Y-8137500I-40000J0D01*
G01*
X15985000Y-8137500D02*
G75*
G02*
X16065000Y-8137500I40000J0D01*
G01*
X16290000Y-11532500D02*
G75*
G02*
X16210000Y-11532500I-40000J0D01*
G01*
X16210000Y-11532500D02*
G75*
G02*
X16290000Y-11532500I40000J0D01*
G01*
X16350000Y-12172500D02*
G75*
G02*
X16270000Y-12172500I-40000J0D01*
G01*
X16270000Y-12172500D02*
G75*
G02*
X16350000Y-12172500I40000J0D01*
G01*
X16352000Y-12800000D02*
G75*
G02*
X16272000Y-12800000I-40000J0D01*
G01*
X16272000Y-12800000D02*
G75*
G02*
X16352000Y-12800000I40000J0D01*
G01*
X16352000Y-13400000D02*
G75*
G02*
X16272000Y-13400000I-40000J0D01*
G01*
X16272000Y-13400000D02*
G75*
G02*
X16352000Y-13400000I40000J0D01*
G01*
X16475000Y-8137500D02*
G75*
G02*
X16395000Y-8137500I-40000J0D01*
G01*
X16395000Y-8137500D02*
G75*
G02*
X16475000Y-8137500I40000J0D01*
G01*
X17560000Y-11532500D02*
G75*
G02*
X17480000Y-11532500I-40000J0D01*
G01*
X17480000Y-11532500D02*
G75*
G02*
X17560000Y-11532500I40000J0D01*
G01*
X17620000Y-12172500D02*
G75*
G02*
X17540000Y-12172500I-40000J0D01*
G01*
X17540000Y-12172500D02*
G75*
G02*
X17620000Y-12172500I40000J0D01*
G01*
X17622000Y-12800000D02*
G75*
G02*
X17542000Y-12800000I-40000J0D01*
G01*
X17542000Y-12800000D02*
G75*
G02*
X17622000Y-12800000I40000J0D01*
G01*
X17622000Y-13400000D02*
G75*
G02*
X17542000Y-13400000I-40000J0D01*
G01*
X17542000Y-13400000D02*
G75*
G02*
X17622000Y-13400000I40000J0D01*
G01*
X17745000Y-8137500D02*
G75*
G02*
X17665000Y-8137500I-40000J0D01*
G01*
X17665000Y-8137500D02*
G75*
G02*
X17745000Y-8137500I40000J0D01*
G01*
X5324950Y-9870500D02*
X5324950Y-9970500D01*
X5274950Y-9920500D02*
X5374950Y-9920500D01*
X5324950Y-10124500D02*
X5324950Y-10224500D01*
X5274950Y-10174500D02*
X5374950Y-10174500D01*
X5324950Y-10378500D02*
X5324950Y-10478500D01*
X5274950Y-10428500D02*
X5374950Y-10428500D01*
X5324950Y-10632500D02*
X5324950Y-10732500D01*
X5274950Y-10682500D02*
X5374950Y-10682500D01*
X5578950Y-9870500D02*
X5578950Y-9970500D01*
X5528950Y-9920500D02*
X5628950Y-9920500D01*
X5578950Y-10124500D02*
X5578950Y-10224500D01*
X5528950Y-10174500D02*
X5628950Y-10174500D01*
X5578950Y-10378500D02*
X5578950Y-10478500D01*
X5528950Y-10428500D02*
X5628950Y-10428500D01*
X5578950Y-10632500D02*
X5578950Y-10732500D01*
X5528950Y-10682500D02*
X5628950Y-10682500D01*
X6719000Y-7165000D02*
X6719000Y-7265000D01*
X6669000Y-7215000D02*
X6769000Y-7215000D01*
X6719000Y-7419000D02*
X6719000Y-7519000D01*
X6669000Y-7469000D02*
X6769000Y-7469000D01*
X6719000Y-7673000D02*
X6719000Y-7773000D01*
X6669000Y-7723000D02*
X6769000Y-7723000D01*
X6719000Y-7927000D02*
X6719000Y-8027000D01*
X6669000Y-7977000D02*
X6769000Y-7977000D01*
X6719000Y-8181000D02*
X6719000Y-8281000D01*
X6669000Y-8231000D02*
X6769000Y-8231000D01*
X6719000Y-8435000D02*
X6719000Y-8535000D01*
X6669000Y-8485000D02*
X6769000Y-8485000D01*
X6719000Y-8689000D02*
X6719000Y-8789000D01*
X6669000Y-8739000D02*
X6769000Y-8739000D01*
X6719000Y-8943000D02*
X6719000Y-9043000D01*
X6669000Y-8993000D02*
X6769000Y-8993000D01*
X6719000Y-9197000D02*
X6719000Y-9297000D01*
X6669000Y-9247000D02*
X6769000Y-9247000D01*
X6719000Y-9451000D02*
X6719000Y-9551000D01*
X6669000Y-9501000D02*
X6769000Y-9501000D01*
X6719000Y-9705000D02*
X6719000Y-9805000D01*
X6669000Y-9755000D02*
X6769000Y-9755000D01*
X6719000Y-9959000D02*
X6719000Y-10059000D01*
X6669000Y-10009000D02*
X6769000Y-10009000D01*
X6719000Y-10213000D02*
X6719000Y-10313000D01*
X6669000Y-10263000D02*
X6769000Y-10263000D01*
X6719000Y-10467000D02*
X6719000Y-10567000D01*
X6669000Y-10517000D02*
X6769000Y-10517000D01*
X6719000Y-10721000D02*
X6719000Y-10821000D01*
X6669000Y-10771000D02*
X6769000Y-10771000D01*
X8243000Y-7165000D02*
X8243000Y-7265000D01*
X8193000Y-7215000D02*
X8293000Y-7215000D01*
X8243000Y-7419000D02*
X8243000Y-7519000D01*
X8193000Y-7469000D02*
X8293000Y-7469000D01*
X8243000Y-7673000D02*
X8243000Y-7773000D01*
X8193000Y-7723000D02*
X8293000Y-7723000D01*
X8243000Y-7927000D02*
X8243000Y-8027000D01*
X8193000Y-7977000D02*
X8293000Y-7977000D01*
X8243000Y-8181000D02*
X8243000Y-8281000D01*
X8193000Y-8231000D02*
X8293000Y-8231000D01*
X8243000Y-8435000D02*
X8243000Y-8535000D01*
X8193000Y-8485000D02*
X8293000Y-8485000D01*
X8243000Y-8689000D02*
X8243000Y-8789000D01*
X8193000Y-8739000D02*
X8293000Y-8739000D01*
X8243000Y-8943000D02*
X8243000Y-9043000D01*
X8193000Y-8993000D02*
X8293000Y-8993000D01*
X8243000Y-9197000D02*
X8243000Y-9297000D01*
X8193000Y-9247000D02*
X8293000Y-9247000D01*
X8243000Y-9451000D02*
X8243000Y-9551000D01*
X8193000Y-9501000D02*
X8293000Y-9501000D01*
X8243000Y-9705000D02*
X8243000Y-9805000D01*
X8193000Y-9755000D02*
X8293000Y-9755000D01*
X8243000Y-9959000D02*
X8243000Y-10059000D01*
X8193000Y-10009000D02*
X8293000Y-10009000D01*
X8243000Y-10213000D02*
X8243000Y-10313000D01*
X8193000Y-10263000D02*
X8293000Y-10263000D01*
X8243000Y-10467000D02*
X8243000Y-10567000D01*
X8193000Y-10517000D02*
X8293000Y-10517000D01*
X8243000Y-10721000D02*
X8243000Y-10821000D01*
X8193000Y-10771000D02*
X8293000Y-10771000D01*
D13*
X7590891Y-3758891D02*
X7590891Y-3681109D01*
X7513109Y-3681109D01*
X7513109Y-3758891D01*
X7590891Y-3758891D01*
X7844891Y-3758891D02*
X7844891Y-3681109D01*
X7767109Y-3681109D01*
X7767109Y-3758891D01*
X7844891Y-3758891D01*
X8098891Y-3758891D02*
X8098891Y-3681109D01*
X8021109Y-3681109D01*
X8021109Y-3758891D01*
X8098891Y-3758891D01*
X8970891Y-3718891D02*
X8970891Y-3641109D01*
X8893109Y-3641109D01*
X8893109Y-3718891D01*
X8970891Y-3718891D01*
X9224891Y-3718891D02*
X9224891Y-3641109D01*
X9147109Y-3641109D01*
X9147109Y-3718891D01*
X9224891Y-3718891D01*
X9478891Y-3718891D02*
X9478891Y-3641109D01*
X9401109Y-3641109D01*
X9401109Y-3718891D01*
X9478891Y-3718891D01*
X10518891Y-2658891D02*
X10518891Y-2581109D01*
X10441109Y-2581109D01*
X10441109Y-2658891D01*
X10518891Y-2658891D01*
X10518891Y-2912891D02*
X10518891Y-2835109D01*
X10441109Y-2835109D01*
X10441109Y-2912891D01*
X10518891Y-2912891D01*
X10518891Y-3166891D02*
X10518891Y-3089109D01*
X10441109Y-3089109D01*
X10441109Y-3166891D01*
X10518891Y-3166891D01*
X10584891Y-4673391D02*
X10584891Y-4595609D01*
X10507109Y-4595609D01*
X10507109Y-4673391D01*
X10584891Y-4673391D01*
X10753391Y-10604891D02*
X10753391Y-10527109D01*
X10675609Y-10527109D01*
X10675609Y-10604891D01*
X10753391Y-10604891D01*
X10753391Y-10858891D02*
X10753391Y-10781109D01*
X10675609Y-10781109D01*
X10675609Y-10858891D01*
X10753391Y-10858891D01*
X10753391Y-11112891D02*
X10753391Y-11035109D01*
X10675609Y-11035109D01*
X10675609Y-11112891D01*
X10753391Y-11112891D01*
X10838891Y-4673391D02*
X10838891Y-4595609D01*
X10761109Y-4595609D01*
X10761109Y-4673391D01*
X10838891Y-4673391D01*
X11092891Y-4673391D02*
X11092891Y-4595609D01*
X11015109Y-4595609D01*
X11015109Y-4673391D01*
X11092891Y-4673391D01*
X12164891Y-4653391D02*
X12164891Y-4575609D01*
X12087109Y-4575609D01*
X12087109Y-4653391D01*
X12164891Y-4653391D01*
X12418891Y-4653391D02*
X12418891Y-4575609D01*
X12341109Y-4575609D01*
X12341109Y-4653391D01*
X12418891Y-4653391D01*
X12672891Y-4653391D02*
X12672891Y-4575609D01*
X12595109Y-4575609D01*
X12595109Y-4653391D01*
X12672891Y-4653391D01*
D14*
X5172000Y-6239500D02*
X5231500Y-6180000D01*
X5172000Y-6120500D01*
X5112500Y-6180000D01*
X5172000Y-6239500D01*
X5426000Y-6239500D02*
X5485500Y-6180000D01*
X5426000Y-6120500D01*
X5366500Y-6180000D01*
X5426000Y-6239500D01*
X5680000Y-6239500D02*
X5739500Y-6180000D01*
X5680000Y-6120500D01*
X5620500Y-6180000D01*
X5680000Y-6239500D01*
X6313000Y-2927500D02*
X6372500Y-2868000D01*
X6313000Y-2808500D01*
X6253500Y-2868000D01*
X6313000Y-2927500D01*
X6313000Y-3181500D02*
X6372500Y-3122000D01*
X6313000Y-3062500D01*
X6253500Y-3122000D01*
X6313000Y-3181500D01*
X7026000Y-6181500D02*
X7085500Y-6122000D01*
X7026000Y-6062500D01*
X6966500Y-6122000D01*
X7026000Y-6181500D01*
X7280000Y-6181500D02*
X7339500Y-6122000D01*
X7280000Y-6062500D01*
X7220500Y-6122000D01*
X7280000Y-6181500D01*
X7534000Y-6181500D02*
X7593500Y-6122000D01*
X7534000Y-6062500D01*
X7474500Y-6122000D01*
X7534000Y-6181500D01*
X8700000Y-2719500D02*
X8759500Y-2660000D01*
X8700000Y-2600500D01*
X8640500Y-2660000D01*
X8700000Y-2719500D01*
X8954000Y-2719500D02*
X9013500Y-2660000D01*
X8954000Y-2600500D01*
X8894500Y-2660000D01*
X8954000Y-2719500D01*
X9160000Y-8003500D02*
X9219500Y-7944000D01*
X9160000Y-7884500D01*
X9100500Y-7944000D01*
X9160000Y-8003500D01*
X9160000Y-8257500D02*
X9219500Y-8198000D01*
X9160000Y-8138500D01*
X9100500Y-8198000D01*
X9160000Y-8257500D01*
X9160000Y-8511500D02*
X9219500Y-8452000D01*
X9160000Y-8392500D01*
X9100500Y-8452000D01*
X9160000Y-8511500D01*
X9160000Y-8765500D02*
X9219500Y-8706000D01*
X9160000Y-8646500D01*
X9100500Y-8706000D01*
X9160000Y-8765500D01*
X9160000Y-9019500D02*
X9219500Y-8960000D01*
X9160000Y-8900500D01*
X9100500Y-8960000D01*
X9160000Y-9019500D01*
X9160000Y-9273500D02*
X9219500Y-9214000D01*
X9160000Y-9154500D01*
X9100500Y-9214000D01*
X9160000Y-9273500D01*
X9160000Y-9527500D02*
X9219500Y-9468000D01*
X9160000Y-9408500D01*
X9100500Y-9468000D01*
X9160000Y-9527500D01*
X9160000Y-9781500D02*
X9219500Y-9722000D01*
X9160000Y-9662500D01*
X9100500Y-9722000D01*
X9160000Y-9781500D01*
X9160000Y-10035500D02*
X9219500Y-9976000D01*
X9160000Y-9916500D01*
X9100500Y-9976000D01*
X9160000Y-10035500D01*
X11540000Y-10745500D02*
X11599500Y-10686000D01*
X11540000Y-10626500D01*
X11480500Y-10686000D01*
X11540000Y-10745500D01*
X11540000Y-10999500D02*
X11599500Y-10940000D01*
X11540000Y-10880500D01*
X11480500Y-10940000D01*
X11540000Y-10999500D01*
X11792000Y-6259500D02*
X11851500Y-6200000D01*
X11792000Y-6140500D01*
X11732500Y-6200000D01*
X11792000Y-6259500D01*
X12046000Y-6259500D02*
X12105500Y-6200000D01*
X12046000Y-6140500D01*
X11986500Y-6200000D01*
X12046000Y-6259500D01*
X12300000Y-6259500D02*
X12359500Y-6200000D01*
X12300000Y-6140500D01*
X12240500Y-6200000D01*
X12300000Y-6259500D01*
X12554000Y-6259500D02*
X12613500Y-6200000D01*
X12554000Y-6140500D01*
X12494500Y-6200000D01*
X12554000Y-6259500D01*
X13531000Y-15032000D02*
X13590500Y-14972500D01*
X13531000Y-14913000D01*
X13471500Y-14972500D01*
X13531000Y-15032000D01*
X13785000Y-15032000D02*
X13844500Y-14972500D01*
X13785000Y-14913000D01*
X13725500Y-14972500D01*
X13785000Y-15032000D01*
X14039000Y-15032000D02*
X14098500Y-14972500D01*
X14039000Y-14913000D01*
X13979500Y-14972500D01*
X14039000Y-15032000D01*
X14293000Y-15032000D02*
X14352500Y-14972500D01*
X14293000Y-14913000D01*
X14233500Y-14972500D01*
X14293000Y-15032000D01*
X14804000Y-15054000D02*
X14863500Y-14994500D01*
X14804000Y-14935000D01*
X14744500Y-14994500D01*
X14804000Y-15054000D01*
X15058000Y-15054000D02*
X15117500Y-14994500D01*
X15058000Y-14935000D01*
X14998500Y-14994500D01*
X15058000Y-15054000D01*
X15312000Y-15054000D02*
X15371500Y-14994500D01*
X15312000Y-14935000D01*
X15252500Y-14994500D01*
X15312000Y-15054000D01*
X15566000Y-15054000D02*
X15625500Y-14994500D01*
X15566000Y-14935000D01*
X15506500Y-14994500D01*
X15566000Y-15054000D01*
X15670000Y-5603000D02*
X15729500Y-5543500D01*
X15670000Y-5484000D01*
X15610500Y-5543500D01*
X15670000Y-5603000D01*
X15670000Y-5857000D02*
X15729500Y-5797500D01*
X15670000Y-5738000D01*
X15610500Y-5797500D01*
X15670000Y-5857000D01*
X15670000Y-6463000D02*
X15729500Y-6403500D01*
X15670000Y-6344000D01*
X15610500Y-6403500D01*
X15670000Y-6463000D01*
X15670000Y-6717000D02*
X15729500Y-6657500D01*
X15670000Y-6598000D01*
X15610500Y-6657500D01*
X15670000Y-6717000D01*
X15690000Y-7297000D02*
X15749500Y-7237500D01*
X15690000Y-7178000D01*
X15630500Y-7237500D01*
X15690000Y-7297000D01*
X15690000Y-7551000D02*
X15749500Y-7491500D01*
X15690000Y-7432000D01*
X15630500Y-7491500D01*
X15690000Y-7551000D01*
D15*
X13935000Y-9522500D02*
X14065000Y-9652500D01*
X14065000Y-9522500D02*
X13935000Y-9652500D01*
X14065000Y-9587500D02*
G75*
G02*
X13935000Y-9587500I-65000J0D01*
G01*
X13935000Y-9587500D02*
G75*
G02*
X14065000Y-9587500I65000J0D01*
G01*
X14185000Y-10522500D02*
X14315000Y-10652500D01*
X14315000Y-10522500D02*
X14185000Y-10652500D01*
X14315000Y-10587500D02*
G75*
G02*
X14185000Y-10587500I-65000J0D01*
G01*
X14185000Y-10587500D02*
G75*
G02*
X14315000Y-10587500I65000J0D01*
G01*
X14435000Y-9522500D02*
X14565000Y-9652500D01*
X14565000Y-9522500D02*
X14435000Y-9652500D01*
X14565000Y-9587500D02*
G75*
G02*
X14435000Y-9587500I-65000J0D01*
G01*
X14435000Y-9587500D02*
G75*
G02*
X14565000Y-9587500I65000J0D01*
G01*
X15095000Y-9622500D02*
X15225000Y-9752500D01*
X15225000Y-9622500D02*
X15095000Y-9752500D01*
X15225000Y-9687500D02*
G75*
G02*
X15095000Y-9687500I-65000J0D01*
G01*
X15095000Y-9687500D02*
G75*
G02*
X15225000Y-9687500I65000J0D01*
G01*
X15095000Y-10122500D02*
X15225000Y-10252500D01*
X15225000Y-10122500D02*
X15095000Y-10252500D01*
X15225000Y-10187500D02*
G75*
G02*
X15095000Y-10187500I-65000J0D01*
G01*
X15095000Y-10187500D02*
G75*
G02*
X15225000Y-10187500I65000J0D01*
G01*
X16095000Y-9872500D02*
X16225000Y-10002500D01*
X16225000Y-9872500D02*
X16095000Y-10002500D01*
X16225000Y-9937500D02*
G75*
G02*
X16095000Y-9937500I-65000J0D01*
G01*
X16095000Y-9937500D02*
G75*
G02*
X16225000Y-9937500I65000J0D01*
G01*
X16715000Y-9582500D02*
X16845000Y-9712500D01*
X16845000Y-9582500D02*
X16715000Y-9712500D01*
X16845000Y-9647500D02*
G75*
G02*
X16715000Y-9647500I-65000J0D01*
G01*
X16715000Y-9647500D02*
G75*
G02*
X16845000Y-9647500I65000J0D01*
G01*
X16715000Y-10082500D02*
X16845000Y-10212500D01*
X16845000Y-10082500D02*
X16715000Y-10212500D01*
X16845000Y-10147500D02*
G75*
G02*
X16715000Y-10147500I-65000J0D01*
G01*
X16715000Y-10147500D02*
G75*
G02*
X16845000Y-10147500I65000J0D01*
G01*
X17715000Y-9832500D02*
X17845000Y-9962500D01*
X17845000Y-9832500D02*
X17715000Y-9962500D01*
X17845000Y-9897500D02*
G75*
G02*
X17715000Y-9897500I-65000J0D01*
G01*
X17715000Y-9897500D02*
G75*
G02*
X17845000Y-9897500I65000J0D01*
G01*
D11*
X2438277Y-16613984D02*
X2438277Y-16413984D01*
X2438277Y-16413984D02*
X2485896Y-16413984D01*
X2485896Y-16413984D02*
X2514467Y-16423508D01*
X2514467Y-16423508D02*
X2533515Y-16442555D01*
X2533515Y-16442555D02*
X2543039Y-16461603D01*
X2543039Y-16461603D02*
X2552563Y-16499698D01*
X2552563Y-16499698D02*
X2552563Y-16528269D01*
X2552563Y-16528269D02*
X2543039Y-16566365D01*
X2543039Y-16566365D02*
X2533515Y-16585412D01*
X2533515Y-16585412D02*
X2514467Y-16604460D01*
X2514467Y-16604460D02*
X2485896Y-16613984D01*
X2485896Y-16613984D02*
X2438277Y-16613984D01*
X2638277Y-16613984D02*
X2638277Y-16480650D01*
X2638277Y-16518746D02*
X2647801Y-16499698D01*
X2647801Y-16499698D02*
X2657324Y-16490174D01*
X2657324Y-16490174D02*
X2676372Y-16480650D01*
X2676372Y-16480650D02*
X2695420Y-16480650D01*
X2762086Y-16613984D02*
X2762086Y-16480650D01*
X2762086Y-16413984D02*
X2752563Y-16423508D01*
X2752563Y-16423508D02*
X2762086Y-16433031D01*
X2762086Y-16433031D02*
X2771610Y-16423508D01*
X2771610Y-16423508D02*
X2762086Y-16413984D01*
X2762086Y-16413984D02*
X2762086Y-16433031D01*
X2885896Y-16613984D02*
X2866848Y-16604460D01*
X2866848Y-16604460D02*
X2857324Y-16585412D01*
X2857324Y-16585412D02*
X2857324Y-16413984D01*
X2990658Y-16613984D02*
X2971610Y-16604460D01*
X2971610Y-16604460D02*
X2962086Y-16585412D01*
X2962086Y-16585412D02*
X2962086Y-16413984D01*
X3219229Y-16613984D02*
X3219229Y-16413984D01*
X3219229Y-16413984D02*
X3285896Y-16556841D01*
X3285896Y-16556841D02*
X3352562Y-16413984D01*
X3352562Y-16413984D02*
X3352562Y-16613984D01*
X3533515Y-16613984D02*
X3533515Y-16509222D01*
X3533515Y-16509222D02*
X3523991Y-16490174D01*
X3523991Y-16490174D02*
X3504943Y-16480650D01*
X3504943Y-16480650D02*
X3466848Y-16480650D01*
X3466848Y-16480650D02*
X3447801Y-16490174D01*
X3533515Y-16604460D02*
X3514467Y-16613984D01*
X3514467Y-16613984D02*
X3466848Y-16613984D01*
X3466848Y-16613984D02*
X3447801Y-16604460D01*
X3447801Y-16604460D02*
X3438277Y-16585412D01*
X3438277Y-16585412D02*
X3438277Y-16566365D01*
X3438277Y-16566365D02*
X3447801Y-16547317D01*
X3447801Y-16547317D02*
X3466848Y-16537793D01*
X3466848Y-16537793D02*
X3514467Y-16537793D01*
X3514467Y-16537793D02*
X3533515Y-16528269D01*
X3628753Y-16480650D02*
X3628753Y-16680650D01*
X3628753Y-16490174D02*
X3647801Y-16480650D01*
X3647801Y-16480650D02*
X3685896Y-16480650D01*
X3685896Y-16480650D02*
X3704943Y-16490174D01*
X3704943Y-16490174D02*
X3714467Y-16499698D01*
X3714467Y-16499698D02*
X3723991Y-16518746D01*
X3723991Y-16518746D02*
X3723991Y-16575888D01*
X3723991Y-16575888D02*
X3714467Y-16594936D01*
X3714467Y-16594936D02*
X3704943Y-16604460D01*
X3704943Y-16604460D02*
X3685896Y-16613984D01*
X3685896Y-16613984D02*
X3647801Y-16613984D01*
X3647801Y-16613984D02*
X3628753Y-16604460D01*
X3809705Y-16594936D02*
X3819229Y-16604460D01*
X3819229Y-16604460D02*
X3809705Y-16613984D01*
X3809705Y-16613984D02*
X3800182Y-16604460D01*
X3800182Y-16604460D02*
X3809705Y-16594936D01*
X3809705Y-16594936D02*
X3809705Y-16613984D01*
X3809705Y-16490174D02*
X3819229Y-16499698D01*
X3819229Y-16499698D02*
X3809705Y-16509222D01*
X3809705Y-16509222D02*
X3800182Y-16499698D01*
X3800182Y-16499698D02*
X3809705Y-16490174D01*
X3809705Y-16490174D02*
X3809705Y-16509222D01*
D12*
X2102500Y-16905000D02*
X2177500Y-16980000D01*
X2177500Y-16905000D02*
X2102500Y-16980000D01*
D11*
X2476372Y-16833984D02*
X2495420Y-16833984D01*
X2495420Y-16833984D02*
X2514467Y-16843508D01*
X2514467Y-16843508D02*
X2523991Y-16853031D01*
X2523991Y-16853031D02*
X2533515Y-16872079D01*
X2533515Y-16872079D02*
X2543039Y-16910174D01*
X2543039Y-16910174D02*
X2543039Y-16957793D01*
X2543039Y-16957793D02*
X2533515Y-16995889D01*
X2533515Y-16995889D02*
X2523991Y-17014936D01*
X2523991Y-17014936D02*
X2514467Y-17024460D01*
X2514467Y-17024460D02*
X2495420Y-17033984D01*
X2495420Y-17033984D02*
X2476372Y-17033984D01*
X2476372Y-17033984D02*
X2457324Y-17024460D01*
X2457324Y-17024460D02*
X2447801Y-17014936D01*
X2447801Y-17014936D02*
X2438277Y-16995889D01*
X2438277Y-16995889D02*
X2428753Y-16957793D01*
X2428753Y-16957793D02*
X2428753Y-16910174D01*
X2428753Y-16910174D02*
X2438277Y-16872079D01*
X2438277Y-16872079D02*
X2447801Y-16853031D01*
X2447801Y-16853031D02*
X2457324Y-16843508D01*
X2457324Y-16843508D02*
X2476372Y-16833984D01*
X2628753Y-17014936D02*
X2638277Y-17024460D01*
X2638277Y-17024460D02*
X2628753Y-17033984D01*
X2628753Y-17033984D02*
X2619229Y-17024460D01*
X2619229Y-17024460D02*
X2628753Y-17014936D01*
X2628753Y-17014936D02*
X2628753Y-17033984D01*
X2704944Y-16833984D02*
X2838277Y-16833984D01*
X2838277Y-16833984D02*
X2752563Y-17033984D01*
X3009705Y-16833984D02*
X2914467Y-16833984D01*
X2914467Y-16833984D02*
X2904943Y-16929222D01*
X2904943Y-16929222D02*
X2914467Y-16919698D01*
X2914467Y-16919698D02*
X2933515Y-16910174D01*
X2933515Y-16910174D02*
X2981134Y-16910174D01*
X2981134Y-16910174D02*
X3000182Y-16919698D01*
X3000182Y-16919698D02*
X3009705Y-16929222D01*
X3009705Y-16929222D02*
X3019229Y-16948270D01*
X3019229Y-16948270D02*
X3019229Y-16995889D01*
X3019229Y-16995889D02*
X3009705Y-17014936D01*
X3009705Y-17014936D02*
X3000182Y-17024460D01*
X3000182Y-17024460D02*
X2981134Y-17033984D01*
X2981134Y-17033984D02*
X2933515Y-17033984D01*
X2933515Y-17033984D02*
X2914467Y-17024460D01*
X2914467Y-17024460D02*
X2904943Y-17014936D01*
X3143039Y-16833984D02*
X3162086Y-16833984D01*
X3162086Y-16833984D02*
X3181134Y-16843508D01*
X3181134Y-16843508D02*
X3190658Y-16853031D01*
X3190658Y-16853031D02*
X3200182Y-16872079D01*
X3200182Y-16872079D02*
X3209705Y-16910174D01*
X3209705Y-16910174D02*
X3209705Y-16957793D01*
X3209705Y-16957793D02*
X3200182Y-16995889D01*
X3200182Y-16995889D02*
X3190658Y-17014936D01*
X3190658Y-17014936D02*
X3181134Y-17024460D01*
X3181134Y-17024460D02*
X3162086Y-17033984D01*
X3162086Y-17033984D02*
X3143039Y-17033984D01*
X3143039Y-17033984D02*
X3123991Y-17024460D01*
X3123991Y-17024460D02*
X3114467Y-17014936D01*
X3114467Y-17014936D02*
X3104943Y-16995889D01*
X3104943Y-16995889D02*
X3095420Y-16957793D01*
X3095420Y-16957793D02*
X3095420Y-16910174D01*
X3095420Y-16910174D02*
X3104943Y-16872079D01*
X3104943Y-16872079D02*
X3114467Y-16853031D01*
X3114467Y-16853031D02*
X3123991Y-16843508D01*
X3123991Y-16843508D02*
X3143039Y-16833984D01*
X3295420Y-17033984D02*
X3295420Y-16900650D01*
X3295420Y-16919698D02*
X3304943Y-16910174D01*
X3304943Y-16910174D02*
X3323991Y-16900650D01*
X3323991Y-16900650D02*
X3352563Y-16900650D01*
X3352563Y-16900650D02*
X3371610Y-16910174D01*
X3371610Y-16910174D02*
X3381134Y-16929222D01*
X3381134Y-16929222D02*
X3381134Y-17033984D01*
X3381134Y-16929222D02*
X3390658Y-16910174D01*
X3390658Y-16910174D02*
X3409705Y-16900650D01*
X3409705Y-16900650D02*
X3438277Y-16900650D01*
X3438277Y-16900650D02*
X3457324Y-16910174D01*
X3457324Y-16910174D02*
X3466848Y-16929222D01*
X3466848Y-16929222D02*
X3466848Y-17033984D01*
X3562086Y-17033984D02*
X3562086Y-16900650D01*
X3562086Y-16919698D02*
X3571610Y-16910174D01*
X3571610Y-16910174D02*
X3590658Y-16900650D01*
X3590658Y-16900650D02*
X3619229Y-16900650D01*
X3619229Y-16900650D02*
X3638277Y-16910174D01*
X3638277Y-16910174D02*
X3647801Y-16929222D01*
X3647801Y-16929222D02*
X3647801Y-17033984D01*
X3647801Y-16929222D02*
X3657324Y-16910174D01*
X3657324Y-16910174D02*
X3676372Y-16900650D01*
X3676372Y-16900650D02*
X3704943Y-16900650D01*
X3704943Y-16900650D02*
X3723991Y-16910174D01*
X3723991Y-16910174D02*
X3733515Y-16929222D01*
X3733515Y-16929222D02*
X3733515Y-17033984D01*
X4123991Y-16824460D02*
X3952563Y-17081603D01*
X4381134Y-16833984D02*
X4400182Y-16833984D01*
X4400182Y-16833984D02*
X4419229Y-16843508D01*
X4419229Y-16843508D02*
X4428753Y-16853031D01*
X4428753Y-16853031D02*
X4438277Y-16872079D01*
X4438277Y-16872079D02*
X4447801Y-16910174D01*
X4447801Y-16910174D02*
X4447801Y-16957793D01*
X4447801Y-16957793D02*
X4438277Y-16995889D01*
X4438277Y-16995889D02*
X4428753Y-17014936D01*
X4428753Y-17014936D02*
X4419229Y-17024460D01*
X4419229Y-17024460D02*
X4400182Y-17033984D01*
X4400182Y-17033984D02*
X4381134Y-17033984D01*
X4381134Y-17033984D02*
X4362087Y-17024460D01*
X4362087Y-17024460D02*
X4352563Y-17014936D01*
X4352563Y-17014936D02*
X4343039Y-16995889D01*
X4343039Y-16995889D02*
X4333515Y-16957793D01*
X4333515Y-16957793D02*
X4333515Y-16910174D01*
X4333515Y-16910174D02*
X4343039Y-16872079D01*
X4343039Y-16872079D02*
X4352563Y-16853031D01*
X4352563Y-16853031D02*
X4362087Y-16843508D01*
X4362087Y-16843508D02*
X4381134Y-16833984D01*
X4533515Y-17014936D02*
X4543039Y-17024460D01*
X4543039Y-17024460D02*
X4533515Y-17033984D01*
X4533515Y-17033984D02*
X4523991Y-17024460D01*
X4523991Y-17024460D02*
X4533515Y-17014936D01*
X4533515Y-17014936D02*
X4533515Y-17033984D01*
X4666848Y-16833984D02*
X4685896Y-16833984D01*
X4685896Y-16833984D02*
X4704944Y-16843508D01*
X4704944Y-16843508D02*
X4714468Y-16853031D01*
X4714468Y-16853031D02*
X4723991Y-16872079D01*
X4723991Y-16872079D02*
X4733515Y-16910174D01*
X4733515Y-16910174D02*
X4733515Y-16957793D01*
X4733515Y-16957793D02*
X4723991Y-16995889D01*
X4723991Y-16995889D02*
X4714468Y-17014936D01*
X4714468Y-17014936D02*
X4704944Y-17024460D01*
X4704944Y-17024460D02*
X4685896Y-17033984D01*
X4685896Y-17033984D02*
X4666848Y-17033984D01*
X4666848Y-17033984D02*
X4647801Y-17024460D01*
X4647801Y-17024460D02*
X4638277Y-17014936D01*
X4638277Y-17014936D02*
X4628753Y-16995889D01*
X4628753Y-16995889D02*
X4619229Y-16957793D01*
X4619229Y-16957793D02*
X4619229Y-16910174D01*
X4619229Y-16910174D02*
X4628753Y-16872079D01*
X4628753Y-16872079D02*
X4638277Y-16853031D01*
X4638277Y-16853031D02*
X4647801Y-16843508D01*
X4647801Y-16843508D02*
X4666848Y-16833984D01*
X4809706Y-16853031D02*
X4819229Y-16843508D01*
X4819229Y-16843508D02*
X4838277Y-16833984D01*
X4838277Y-16833984D02*
X4885896Y-16833984D01*
X4885896Y-16833984D02*
X4904944Y-16843508D01*
X4904944Y-16843508D02*
X4914468Y-16853031D01*
X4914468Y-16853031D02*
X4923991Y-16872079D01*
X4923991Y-16872079D02*
X4923991Y-16891127D01*
X4923991Y-16891127D02*
X4914468Y-16919698D01*
X4914468Y-16919698D02*
X4800182Y-17033984D01*
X4800182Y-17033984D02*
X4923991Y-17033984D01*
X5019229Y-17033984D02*
X5057325Y-17033984D01*
X5057325Y-17033984D02*
X5076372Y-17024460D01*
X5076372Y-17024460D02*
X5085896Y-17014936D01*
X5085896Y-17014936D02*
X5104944Y-16986365D01*
X5104944Y-16986365D02*
X5114468Y-16948270D01*
X5114468Y-16948270D02*
X5114468Y-16872079D01*
X5114468Y-16872079D02*
X5104944Y-16853031D01*
X5104944Y-16853031D02*
X5095420Y-16843508D01*
X5095420Y-16843508D02*
X5076372Y-16833984D01*
X5076372Y-16833984D02*
X5038277Y-16833984D01*
X5038277Y-16833984D02*
X5019229Y-16843508D01*
X5019229Y-16843508D02*
X5009706Y-16853031D01*
X5009706Y-16853031D02*
X5000182Y-16872079D01*
X5000182Y-16872079D02*
X5000182Y-16919698D01*
X5000182Y-16919698D02*
X5009706Y-16938746D01*
X5009706Y-16938746D02*
X5019229Y-16948270D01*
X5019229Y-16948270D02*
X5038277Y-16957793D01*
X5038277Y-16957793D02*
X5076372Y-16957793D01*
X5076372Y-16957793D02*
X5095420Y-16948270D01*
X5095420Y-16948270D02*
X5104944Y-16938746D01*
X5104944Y-16938746D02*
X5114468Y-16919698D01*
X5295420Y-16833984D02*
X5200182Y-16833984D01*
X5200182Y-16833984D02*
X5190658Y-16929222D01*
X5190658Y-16929222D02*
X5200182Y-16919698D01*
X5200182Y-16919698D02*
X5219229Y-16910174D01*
X5219229Y-16910174D02*
X5266849Y-16910174D01*
X5266849Y-16910174D02*
X5285896Y-16919698D01*
X5285896Y-16919698D02*
X5295420Y-16929222D01*
X5295420Y-16929222D02*
X5304944Y-16948270D01*
X5304944Y-16948270D02*
X5304944Y-16995889D01*
X5304944Y-16995889D02*
X5295420Y-17014936D01*
X5295420Y-17014936D02*
X5285896Y-17024460D01*
X5285896Y-17024460D02*
X5266849Y-17033984D01*
X5266849Y-17033984D02*
X5219229Y-17033984D01*
X5219229Y-17033984D02*
X5200182Y-17024460D01*
X5200182Y-17024460D02*
X5190658Y-17014936D01*
X5381134Y-16833984D02*
X5381134Y-16872079D01*
X5457325Y-16833984D02*
X5457325Y-16872079D01*
X5752563Y-17110174D02*
X5743039Y-17100650D01*
X5743039Y-17100650D02*
X5723991Y-17072079D01*
X5723991Y-17072079D02*
X5714468Y-17053031D01*
X5714468Y-17053031D02*
X5704944Y-17024460D01*
X5704944Y-17024460D02*
X5695420Y-16976841D01*
X5695420Y-16976841D02*
X5695420Y-16938746D01*
X5695420Y-16938746D02*
X5704944Y-16891127D01*
X5704944Y-16891127D02*
X5714468Y-16862555D01*
X5714468Y-16862555D02*
X5723991Y-16843508D01*
X5723991Y-16843508D02*
X5743039Y-16814936D01*
X5743039Y-16814936D02*
X5752563Y-16805412D01*
X5809706Y-16833984D02*
X5933515Y-16833984D01*
X5933515Y-16833984D02*
X5866848Y-16910174D01*
X5866848Y-16910174D02*
X5895420Y-16910174D01*
X5895420Y-16910174D02*
X5914468Y-16919698D01*
X5914468Y-16919698D02*
X5923991Y-16929222D01*
X5923991Y-16929222D02*
X5933515Y-16948270D01*
X5933515Y-16948270D02*
X5933515Y-16995889D01*
X5933515Y-16995889D02*
X5923991Y-17014936D01*
X5923991Y-17014936D02*
X5914468Y-17024460D01*
X5914468Y-17024460D02*
X5895420Y-17033984D01*
X5895420Y-17033984D02*
X5838277Y-17033984D01*
X5838277Y-17033984D02*
X5819229Y-17024460D01*
X5819229Y-17024460D02*
X5809706Y-17014936D01*
X6057325Y-16833984D02*
X6076372Y-16833984D01*
X6076372Y-16833984D02*
X6095420Y-16843508D01*
X6095420Y-16843508D02*
X6104944Y-16853031D01*
X6104944Y-16853031D02*
X6114468Y-16872079D01*
X6114468Y-16872079D02*
X6123991Y-16910174D01*
X6123991Y-16910174D02*
X6123991Y-16957793D01*
X6123991Y-16957793D02*
X6114468Y-16995889D01*
X6114468Y-16995889D02*
X6104944Y-17014936D01*
X6104944Y-17014936D02*
X6095420Y-17024460D01*
X6095420Y-17024460D02*
X6076372Y-17033984D01*
X6076372Y-17033984D02*
X6057325Y-17033984D01*
X6057325Y-17033984D02*
X6038277Y-17024460D01*
X6038277Y-17024460D02*
X6028753Y-17014936D01*
X6028753Y-17014936D02*
X6019229Y-16995889D01*
X6019229Y-16995889D02*
X6009706Y-16957793D01*
X6009706Y-16957793D02*
X6009706Y-16910174D01*
X6009706Y-16910174D02*
X6019229Y-16872079D01*
X6019229Y-16872079D02*
X6028753Y-16853031D01*
X6028753Y-16853031D02*
X6038277Y-16843508D01*
X6038277Y-16843508D02*
X6057325Y-16833984D01*
X6362087Y-17033984D02*
X6362087Y-16833984D01*
X6447801Y-17033984D02*
X6447801Y-16929222D01*
X6447801Y-16929222D02*
X6438277Y-16910174D01*
X6438277Y-16910174D02*
X6419230Y-16900650D01*
X6419230Y-16900650D02*
X6390658Y-16900650D01*
X6390658Y-16900650D02*
X6371610Y-16910174D01*
X6371610Y-16910174D02*
X6362087Y-16919698D01*
X6571610Y-17033984D02*
X6552563Y-17024460D01*
X6552563Y-17024460D02*
X6543039Y-17014936D01*
X6543039Y-17014936D02*
X6533515Y-16995889D01*
X6533515Y-16995889D02*
X6533515Y-16938746D01*
X6533515Y-16938746D02*
X6543039Y-16919698D01*
X6543039Y-16919698D02*
X6552563Y-16910174D01*
X6552563Y-16910174D02*
X6571610Y-16900650D01*
X6571610Y-16900650D02*
X6600182Y-16900650D01*
X6600182Y-16900650D02*
X6619230Y-16910174D01*
X6619230Y-16910174D02*
X6628753Y-16919698D01*
X6628753Y-16919698D02*
X6638277Y-16938746D01*
X6638277Y-16938746D02*
X6638277Y-16995889D01*
X6638277Y-16995889D02*
X6628753Y-17014936D01*
X6628753Y-17014936D02*
X6619230Y-17024460D01*
X6619230Y-17024460D02*
X6600182Y-17033984D01*
X6600182Y-17033984D02*
X6571610Y-17033984D01*
X6752563Y-17033984D02*
X6733515Y-17024460D01*
X6733515Y-17024460D02*
X6723991Y-17005412D01*
X6723991Y-17005412D02*
X6723991Y-16833984D01*
X6904944Y-17024460D02*
X6885896Y-17033984D01*
X6885896Y-17033984D02*
X6847801Y-17033984D01*
X6847801Y-17033984D02*
X6828753Y-17024460D01*
X6828753Y-17024460D02*
X6819230Y-17005412D01*
X6819230Y-17005412D02*
X6819230Y-16929222D01*
X6819230Y-16929222D02*
X6828753Y-16910174D01*
X6828753Y-16910174D02*
X6847801Y-16900650D01*
X6847801Y-16900650D02*
X6885896Y-16900650D01*
X6885896Y-16900650D02*
X6904944Y-16910174D01*
X6904944Y-16910174D02*
X6914468Y-16929222D01*
X6914468Y-16929222D02*
X6914468Y-16948270D01*
X6914468Y-16948270D02*
X6819230Y-16967317D01*
X6990658Y-17024460D02*
X7009706Y-17033984D01*
X7009706Y-17033984D02*
X7047801Y-17033984D01*
X7047801Y-17033984D02*
X7066849Y-17024460D01*
X7066849Y-17024460D02*
X7076372Y-17005412D01*
X7076372Y-17005412D02*
X7076372Y-16995889D01*
X7076372Y-16995889D02*
X7066849Y-16976841D01*
X7066849Y-16976841D02*
X7047801Y-16967317D01*
X7047801Y-16967317D02*
X7019230Y-16967317D01*
X7019230Y-16967317D02*
X7000182Y-16957793D01*
X7000182Y-16957793D02*
X6990658Y-16938746D01*
X6990658Y-16938746D02*
X6990658Y-16929222D01*
X6990658Y-16929222D02*
X7000182Y-16910174D01*
X7000182Y-16910174D02*
X7019230Y-16900650D01*
X7019230Y-16900650D02*
X7047801Y-16900650D01*
X7047801Y-16900650D02*
X7066849Y-16910174D01*
X7143039Y-17110174D02*
X7152563Y-17100650D01*
X7152563Y-17100650D02*
X7171611Y-17072079D01*
X7171611Y-17072079D02*
X7181134Y-17053031D01*
X7181134Y-17053031D02*
X7190658Y-17024460D01*
X7190658Y-17024460D02*
X7200182Y-16976841D01*
X7200182Y-16976841D02*
X7200182Y-16938746D01*
X7200182Y-16938746D02*
X7190658Y-16891127D01*
X7190658Y-16891127D02*
X7181134Y-16862555D01*
X7181134Y-16862555D02*
X7171611Y-16843508D01*
X7171611Y-16843508D02*
X7152563Y-16814936D01*
X7152563Y-16814936D02*
X7143039Y-16805412D01*
D12*
X2177500Y-17206500D02*
G75*
G02*
X2097500Y-17206500I-40000J0D01*
G01*
X2097500Y-17206500D02*
G75*
G02*
X2177500Y-17206500I40000J0D01*
G01*
D11*
X2476372Y-17097984D02*
X2495420Y-17097984D01*
X2495420Y-17097984D02*
X2514467Y-17107508D01*
X2514467Y-17107508D02*
X2523991Y-17117031D01*
X2523991Y-17117031D02*
X2533515Y-17136079D01*
X2533515Y-17136079D02*
X2543039Y-17174174D01*
X2543039Y-17174174D02*
X2543039Y-17221793D01*
X2543039Y-17221793D02*
X2533515Y-17259889D01*
X2533515Y-17259889D02*
X2523991Y-17278936D01*
X2523991Y-17278936D02*
X2514467Y-17288460D01*
X2514467Y-17288460D02*
X2495420Y-17297984D01*
X2495420Y-17297984D02*
X2476372Y-17297984D01*
X2476372Y-17297984D02*
X2457324Y-17288460D01*
X2457324Y-17288460D02*
X2447801Y-17278936D01*
X2447801Y-17278936D02*
X2438277Y-17259889D01*
X2438277Y-17259889D02*
X2428753Y-17221793D01*
X2428753Y-17221793D02*
X2428753Y-17174174D01*
X2428753Y-17174174D02*
X2438277Y-17136079D01*
X2438277Y-17136079D02*
X2447801Y-17117031D01*
X2447801Y-17117031D02*
X2457324Y-17107508D01*
X2457324Y-17107508D02*
X2476372Y-17097984D01*
X2628753Y-17278936D02*
X2638277Y-17288460D01*
X2638277Y-17288460D02*
X2628753Y-17297984D01*
X2628753Y-17297984D02*
X2619229Y-17288460D01*
X2619229Y-17288460D02*
X2628753Y-17278936D01*
X2628753Y-17278936D02*
X2628753Y-17297984D01*
X2752563Y-17183698D02*
X2733515Y-17174174D01*
X2733515Y-17174174D02*
X2723991Y-17164650D01*
X2723991Y-17164650D02*
X2714467Y-17145603D01*
X2714467Y-17145603D02*
X2714467Y-17136079D01*
X2714467Y-17136079D02*
X2723991Y-17117031D01*
X2723991Y-17117031D02*
X2733515Y-17107508D01*
X2733515Y-17107508D02*
X2752563Y-17097984D01*
X2752563Y-17097984D02*
X2790658Y-17097984D01*
X2790658Y-17097984D02*
X2809705Y-17107508D01*
X2809705Y-17107508D02*
X2819229Y-17117031D01*
X2819229Y-17117031D02*
X2828753Y-17136079D01*
X2828753Y-17136079D02*
X2828753Y-17145603D01*
X2828753Y-17145603D02*
X2819229Y-17164650D01*
X2819229Y-17164650D02*
X2809705Y-17174174D01*
X2809705Y-17174174D02*
X2790658Y-17183698D01*
X2790658Y-17183698D02*
X2752563Y-17183698D01*
X2752563Y-17183698D02*
X2733515Y-17193222D01*
X2733515Y-17193222D02*
X2723991Y-17202746D01*
X2723991Y-17202746D02*
X2714467Y-17221793D01*
X2714467Y-17221793D02*
X2714467Y-17259889D01*
X2714467Y-17259889D02*
X2723991Y-17278936D01*
X2723991Y-17278936D02*
X2733515Y-17288460D01*
X2733515Y-17288460D02*
X2752563Y-17297984D01*
X2752563Y-17297984D02*
X2790658Y-17297984D01*
X2790658Y-17297984D02*
X2809705Y-17288460D01*
X2809705Y-17288460D02*
X2819229Y-17278936D01*
X2819229Y-17278936D02*
X2828753Y-17259889D01*
X2828753Y-17259889D02*
X2828753Y-17221793D01*
X2828753Y-17221793D02*
X2819229Y-17202746D01*
X2819229Y-17202746D02*
X2809705Y-17193222D01*
X2809705Y-17193222D02*
X2790658Y-17183698D01*
X2952562Y-17097984D02*
X2971610Y-17097984D01*
X2971610Y-17097984D02*
X2990658Y-17107508D01*
X2990658Y-17107508D02*
X3000182Y-17117031D01*
X3000182Y-17117031D02*
X3009705Y-17136079D01*
X3009705Y-17136079D02*
X3019229Y-17174174D01*
X3019229Y-17174174D02*
X3019229Y-17221793D01*
X3019229Y-17221793D02*
X3009705Y-17259889D01*
X3009705Y-17259889D02*
X3000182Y-17278936D01*
X3000182Y-17278936D02*
X2990658Y-17288460D01*
X2990658Y-17288460D02*
X2971610Y-17297984D01*
X2971610Y-17297984D02*
X2952562Y-17297984D01*
X2952562Y-17297984D02*
X2933515Y-17288460D01*
X2933515Y-17288460D02*
X2923991Y-17278936D01*
X2923991Y-17278936D02*
X2914467Y-17259889D01*
X2914467Y-17259889D02*
X2904943Y-17221793D01*
X2904943Y-17221793D02*
X2904943Y-17174174D01*
X2904943Y-17174174D02*
X2914467Y-17136079D01*
X2914467Y-17136079D02*
X2923991Y-17117031D01*
X2923991Y-17117031D02*
X2933515Y-17107508D01*
X2933515Y-17107508D02*
X2952562Y-17097984D01*
X3143039Y-17097984D02*
X3162086Y-17097984D01*
X3162086Y-17097984D02*
X3181134Y-17107508D01*
X3181134Y-17107508D02*
X3190658Y-17117031D01*
X3190658Y-17117031D02*
X3200182Y-17136079D01*
X3200182Y-17136079D02*
X3209705Y-17174174D01*
X3209705Y-17174174D02*
X3209705Y-17221793D01*
X3209705Y-17221793D02*
X3200182Y-17259889D01*
X3200182Y-17259889D02*
X3190658Y-17278936D01*
X3190658Y-17278936D02*
X3181134Y-17288460D01*
X3181134Y-17288460D02*
X3162086Y-17297984D01*
X3162086Y-17297984D02*
X3143039Y-17297984D01*
X3143039Y-17297984D02*
X3123991Y-17288460D01*
X3123991Y-17288460D02*
X3114467Y-17278936D01*
X3114467Y-17278936D02*
X3104943Y-17259889D01*
X3104943Y-17259889D02*
X3095420Y-17221793D01*
X3095420Y-17221793D02*
X3095420Y-17174174D01*
X3095420Y-17174174D02*
X3104943Y-17136079D01*
X3104943Y-17136079D02*
X3114467Y-17117031D01*
X3114467Y-17117031D02*
X3123991Y-17107508D01*
X3123991Y-17107508D02*
X3143039Y-17097984D01*
X3295420Y-17297984D02*
X3295420Y-17164650D01*
X3295420Y-17183698D02*
X3304943Y-17174174D01*
X3304943Y-17174174D02*
X3323991Y-17164650D01*
X3323991Y-17164650D02*
X3352563Y-17164650D01*
X3352563Y-17164650D02*
X3371610Y-17174174D01*
X3371610Y-17174174D02*
X3381134Y-17193222D01*
X3381134Y-17193222D02*
X3381134Y-17297984D01*
X3381134Y-17193222D02*
X3390658Y-17174174D01*
X3390658Y-17174174D02*
X3409705Y-17164650D01*
X3409705Y-17164650D02*
X3438277Y-17164650D01*
X3438277Y-17164650D02*
X3457324Y-17174174D01*
X3457324Y-17174174D02*
X3466848Y-17193222D01*
X3466848Y-17193222D02*
X3466848Y-17297984D01*
X3562086Y-17297984D02*
X3562086Y-17164650D01*
X3562086Y-17183698D02*
X3571610Y-17174174D01*
X3571610Y-17174174D02*
X3590658Y-17164650D01*
X3590658Y-17164650D02*
X3619229Y-17164650D01*
X3619229Y-17164650D02*
X3638277Y-17174174D01*
X3638277Y-17174174D02*
X3647801Y-17193222D01*
X3647801Y-17193222D02*
X3647801Y-17297984D01*
X3647801Y-17193222D02*
X3657324Y-17174174D01*
X3657324Y-17174174D02*
X3676372Y-17164650D01*
X3676372Y-17164650D02*
X3704943Y-17164650D01*
X3704943Y-17164650D02*
X3723991Y-17174174D01*
X3723991Y-17174174D02*
X3733515Y-17193222D01*
X3733515Y-17193222D02*
X3733515Y-17297984D01*
X4123991Y-17088460D02*
X3952563Y-17345603D01*
X4381134Y-17097984D02*
X4400182Y-17097984D01*
X4400182Y-17097984D02*
X4419229Y-17107508D01*
X4419229Y-17107508D02*
X4428753Y-17117031D01*
X4428753Y-17117031D02*
X4438277Y-17136079D01*
X4438277Y-17136079D02*
X4447801Y-17174174D01*
X4447801Y-17174174D02*
X4447801Y-17221793D01*
X4447801Y-17221793D02*
X4438277Y-17259889D01*
X4438277Y-17259889D02*
X4428753Y-17278936D01*
X4428753Y-17278936D02*
X4419229Y-17288460D01*
X4419229Y-17288460D02*
X4400182Y-17297984D01*
X4400182Y-17297984D02*
X4381134Y-17297984D01*
X4381134Y-17297984D02*
X4362087Y-17288460D01*
X4362087Y-17288460D02*
X4352563Y-17278936D01*
X4352563Y-17278936D02*
X4343039Y-17259889D01*
X4343039Y-17259889D02*
X4333515Y-17221793D01*
X4333515Y-17221793D02*
X4333515Y-17174174D01*
X4333515Y-17174174D02*
X4343039Y-17136079D01*
X4343039Y-17136079D02*
X4352563Y-17117031D01*
X4352563Y-17117031D02*
X4362087Y-17107508D01*
X4362087Y-17107508D02*
X4381134Y-17097984D01*
X4533515Y-17278936D02*
X4543039Y-17288460D01*
X4543039Y-17288460D02*
X4533515Y-17297984D01*
X4533515Y-17297984D02*
X4523991Y-17288460D01*
X4523991Y-17288460D02*
X4533515Y-17278936D01*
X4533515Y-17278936D02*
X4533515Y-17297984D01*
X4666848Y-17097984D02*
X4685896Y-17097984D01*
X4685896Y-17097984D02*
X4704944Y-17107508D01*
X4704944Y-17107508D02*
X4714468Y-17117031D01*
X4714468Y-17117031D02*
X4723991Y-17136079D01*
X4723991Y-17136079D02*
X4733515Y-17174174D01*
X4733515Y-17174174D02*
X4733515Y-17221793D01*
X4733515Y-17221793D02*
X4723991Y-17259889D01*
X4723991Y-17259889D02*
X4714468Y-17278936D01*
X4714468Y-17278936D02*
X4704944Y-17288460D01*
X4704944Y-17288460D02*
X4685896Y-17297984D01*
X4685896Y-17297984D02*
X4666848Y-17297984D01*
X4666848Y-17297984D02*
X4647801Y-17288460D01*
X4647801Y-17288460D02*
X4638277Y-17278936D01*
X4638277Y-17278936D02*
X4628753Y-17259889D01*
X4628753Y-17259889D02*
X4619229Y-17221793D01*
X4619229Y-17221793D02*
X4619229Y-17174174D01*
X4619229Y-17174174D02*
X4628753Y-17136079D01*
X4628753Y-17136079D02*
X4638277Y-17117031D01*
X4638277Y-17117031D02*
X4647801Y-17107508D01*
X4647801Y-17107508D02*
X4666848Y-17097984D01*
X4800182Y-17097984D02*
X4923991Y-17097984D01*
X4923991Y-17097984D02*
X4857325Y-17174174D01*
X4857325Y-17174174D02*
X4885896Y-17174174D01*
X4885896Y-17174174D02*
X4904944Y-17183698D01*
X4904944Y-17183698D02*
X4914468Y-17193222D01*
X4914468Y-17193222D02*
X4923991Y-17212270D01*
X4923991Y-17212270D02*
X4923991Y-17259889D01*
X4923991Y-17259889D02*
X4914468Y-17278936D01*
X4914468Y-17278936D02*
X4904944Y-17288460D01*
X4904944Y-17288460D02*
X4885896Y-17297984D01*
X4885896Y-17297984D02*
X4828753Y-17297984D01*
X4828753Y-17297984D02*
X4809706Y-17288460D01*
X4809706Y-17288460D02*
X4800182Y-17278936D01*
X5114468Y-17297984D02*
X5000182Y-17297984D01*
X5057325Y-17297984D02*
X5057325Y-17097984D01*
X5057325Y-17097984D02*
X5038277Y-17126555D01*
X5038277Y-17126555D02*
X5019229Y-17145603D01*
X5019229Y-17145603D02*
X5000182Y-17155127D01*
X5295420Y-17097984D02*
X5200182Y-17097984D01*
X5200182Y-17097984D02*
X5190658Y-17193222D01*
X5190658Y-17193222D02*
X5200182Y-17183698D01*
X5200182Y-17183698D02*
X5219229Y-17174174D01*
X5219229Y-17174174D02*
X5266849Y-17174174D01*
X5266849Y-17174174D02*
X5285896Y-17183698D01*
X5285896Y-17183698D02*
X5295420Y-17193222D01*
X5295420Y-17193222D02*
X5304944Y-17212270D01*
X5304944Y-17212270D02*
X5304944Y-17259889D01*
X5304944Y-17259889D02*
X5295420Y-17278936D01*
X5295420Y-17278936D02*
X5285896Y-17288460D01*
X5285896Y-17288460D02*
X5266849Y-17297984D01*
X5266849Y-17297984D02*
X5219229Y-17297984D01*
X5219229Y-17297984D02*
X5200182Y-17288460D01*
X5200182Y-17288460D02*
X5190658Y-17278936D01*
X5381134Y-17097984D02*
X5381134Y-17136079D01*
X5457325Y-17097984D02*
X5457325Y-17136079D01*
X5752563Y-17374174D02*
X5743039Y-17364650D01*
X5743039Y-17364650D02*
X5723991Y-17336079D01*
X5723991Y-17336079D02*
X5714468Y-17317031D01*
X5714468Y-17317031D02*
X5704944Y-17288460D01*
X5704944Y-17288460D02*
X5695420Y-17240841D01*
X5695420Y-17240841D02*
X5695420Y-17202746D01*
X5695420Y-17202746D02*
X5704944Y-17155127D01*
X5704944Y-17155127D02*
X5714468Y-17126555D01*
X5714468Y-17126555D02*
X5723991Y-17107508D01*
X5723991Y-17107508D02*
X5743039Y-17078936D01*
X5743039Y-17078936D02*
X5752563Y-17069412D01*
X5809706Y-17097984D02*
X5943039Y-17097984D01*
X5943039Y-17097984D02*
X5857325Y-17297984D01*
X6104944Y-17164650D02*
X6104944Y-17297984D01*
X6057325Y-17088460D02*
X6009706Y-17231317D01*
X6009706Y-17231317D02*
X6133515Y-17231317D01*
X6362087Y-17297984D02*
X6362087Y-17097984D01*
X6447801Y-17297984D02*
X6447801Y-17193222D01*
X6447801Y-17193222D02*
X6438277Y-17174174D01*
X6438277Y-17174174D02*
X6419230Y-17164650D01*
X6419230Y-17164650D02*
X6390658Y-17164650D01*
X6390658Y-17164650D02*
X6371610Y-17174174D01*
X6371610Y-17174174D02*
X6362087Y-17183698D01*
X6571610Y-17297984D02*
X6552563Y-17288460D01*
X6552563Y-17288460D02*
X6543039Y-17278936D01*
X6543039Y-17278936D02*
X6533515Y-17259889D01*
X6533515Y-17259889D02*
X6533515Y-17202746D01*
X6533515Y-17202746D02*
X6543039Y-17183698D01*
X6543039Y-17183698D02*
X6552563Y-17174174D01*
X6552563Y-17174174D02*
X6571610Y-17164650D01*
X6571610Y-17164650D02*
X6600182Y-17164650D01*
X6600182Y-17164650D02*
X6619230Y-17174174D01*
X6619230Y-17174174D02*
X6628753Y-17183698D01*
X6628753Y-17183698D02*
X6638277Y-17202746D01*
X6638277Y-17202746D02*
X6638277Y-17259889D01*
X6638277Y-17259889D02*
X6628753Y-17278936D01*
X6628753Y-17278936D02*
X6619230Y-17288460D01*
X6619230Y-17288460D02*
X6600182Y-17297984D01*
X6600182Y-17297984D02*
X6571610Y-17297984D01*
X6752563Y-17297984D02*
X6733515Y-17288460D01*
X6733515Y-17288460D02*
X6723991Y-17269412D01*
X6723991Y-17269412D02*
X6723991Y-17097984D01*
X6904944Y-17288460D02*
X6885896Y-17297984D01*
X6885896Y-17297984D02*
X6847801Y-17297984D01*
X6847801Y-17297984D02*
X6828753Y-17288460D01*
X6828753Y-17288460D02*
X6819230Y-17269412D01*
X6819230Y-17269412D02*
X6819230Y-17193222D01*
X6819230Y-17193222D02*
X6828753Y-17174174D01*
X6828753Y-17174174D02*
X6847801Y-17164650D01*
X6847801Y-17164650D02*
X6885896Y-17164650D01*
X6885896Y-17164650D02*
X6904944Y-17174174D01*
X6904944Y-17174174D02*
X6914468Y-17193222D01*
X6914468Y-17193222D02*
X6914468Y-17212270D01*
X6914468Y-17212270D02*
X6819230Y-17231317D01*
X6990658Y-17288460D02*
X7009706Y-17297984D01*
X7009706Y-17297984D02*
X7047801Y-17297984D01*
X7047801Y-17297984D02*
X7066849Y-17288460D01*
X7066849Y-17288460D02*
X7076372Y-17269412D01*
X7076372Y-17269412D02*
X7076372Y-17259889D01*
X7076372Y-17259889D02*
X7066849Y-17240841D01*
X7066849Y-17240841D02*
X7047801Y-17231317D01*
X7047801Y-17231317D02*
X7019230Y-17231317D01*
X7019230Y-17231317D02*
X7000182Y-17221793D01*
X7000182Y-17221793D02*
X6990658Y-17202746D01*
X6990658Y-17202746D02*
X6990658Y-17193222D01*
X6990658Y-17193222D02*
X7000182Y-17174174D01*
X7000182Y-17174174D02*
X7019230Y-17164650D01*
X7019230Y-17164650D02*
X7047801Y-17164650D01*
X7047801Y-17164650D02*
X7066849Y-17174174D01*
X7143039Y-17374174D02*
X7152563Y-17364650D01*
X7152563Y-17364650D02*
X7171611Y-17336079D01*
X7171611Y-17336079D02*
X7181134Y-17317031D01*
X7181134Y-17317031D02*
X7190658Y-17288460D01*
X7190658Y-17288460D02*
X7200182Y-17240841D01*
X7200182Y-17240841D02*
X7200182Y-17202746D01*
X7200182Y-17202746D02*
X7190658Y-17155127D01*
X7190658Y-17155127D02*
X7181134Y-17126555D01*
X7181134Y-17126555D02*
X7171611Y-17107508D01*
X7171611Y-17107508D02*
X7152563Y-17078936D01*
X7152563Y-17078936D02*
X7143039Y-17069412D01*
D12*
X2127500Y-17420500D02*
X2127500Y-17520500D01*
X2077500Y-17470500D02*
X2177500Y-17470500D01*
D11*
X2543039Y-17561984D02*
X2428753Y-17561984D01*
X2485896Y-17561984D02*
X2485896Y-17361984D01*
X2485896Y-17361984D02*
X2466848Y-17390555D01*
X2466848Y-17390555D02*
X2447801Y-17409603D01*
X2447801Y-17409603D02*
X2428753Y-17419127D01*
X2628753Y-17542936D02*
X2638277Y-17552460D01*
X2638277Y-17552460D02*
X2628753Y-17561984D01*
X2628753Y-17561984D02*
X2619229Y-17552460D01*
X2619229Y-17552460D02*
X2628753Y-17542936D01*
X2628753Y-17542936D02*
X2628753Y-17561984D01*
X2762086Y-17361984D02*
X2781134Y-17361984D01*
X2781134Y-17361984D02*
X2800182Y-17371508D01*
X2800182Y-17371508D02*
X2809705Y-17381031D01*
X2809705Y-17381031D02*
X2819229Y-17400079D01*
X2819229Y-17400079D02*
X2828753Y-17438174D01*
X2828753Y-17438174D02*
X2828753Y-17485793D01*
X2828753Y-17485793D02*
X2819229Y-17523889D01*
X2819229Y-17523889D02*
X2809705Y-17542936D01*
X2809705Y-17542936D02*
X2800182Y-17552460D01*
X2800182Y-17552460D02*
X2781134Y-17561984D01*
X2781134Y-17561984D02*
X2762086Y-17561984D01*
X2762086Y-17561984D02*
X2743039Y-17552460D01*
X2743039Y-17552460D02*
X2733515Y-17542936D01*
X2733515Y-17542936D02*
X2723991Y-17523889D01*
X2723991Y-17523889D02*
X2714467Y-17485793D01*
X2714467Y-17485793D02*
X2714467Y-17438174D01*
X2714467Y-17438174D02*
X2723991Y-17400079D01*
X2723991Y-17400079D02*
X2733515Y-17381031D01*
X2733515Y-17381031D02*
X2743039Y-17371508D01*
X2743039Y-17371508D02*
X2762086Y-17361984D01*
X2952562Y-17361984D02*
X2971610Y-17361984D01*
X2971610Y-17361984D02*
X2990658Y-17371508D01*
X2990658Y-17371508D02*
X3000182Y-17381031D01*
X3000182Y-17381031D02*
X3009705Y-17400079D01*
X3009705Y-17400079D02*
X3019229Y-17438174D01*
X3019229Y-17438174D02*
X3019229Y-17485793D01*
X3019229Y-17485793D02*
X3009705Y-17523889D01*
X3009705Y-17523889D02*
X3000182Y-17542936D01*
X3000182Y-17542936D02*
X2990658Y-17552460D01*
X2990658Y-17552460D02*
X2971610Y-17561984D01*
X2971610Y-17561984D02*
X2952562Y-17561984D01*
X2952562Y-17561984D02*
X2933515Y-17552460D01*
X2933515Y-17552460D02*
X2923991Y-17542936D01*
X2923991Y-17542936D02*
X2914467Y-17523889D01*
X2914467Y-17523889D02*
X2904943Y-17485793D01*
X2904943Y-17485793D02*
X2904943Y-17438174D01*
X2904943Y-17438174D02*
X2914467Y-17400079D01*
X2914467Y-17400079D02*
X2923991Y-17381031D01*
X2923991Y-17381031D02*
X2933515Y-17371508D01*
X2933515Y-17371508D02*
X2952562Y-17361984D01*
X3143039Y-17361984D02*
X3162086Y-17361984D01*
X3162086Y-17361984D02*
X3181134Y-17371508D01*
X3181134Y-17371508D02*
X3190658Y-17381031D01*
X3190658Y-17381031D02*
X3200182Y-17400079D01*
X3200182Y-17400079D02*
X3209705Y-17438174D01*
X3209705Y-17438174D02*
X3209705Y-17485793D01*
X3209705Y-17485793D02*
X3200182Y-17523889D01*
X3200182Y-17523889D02*
X3190658Y-17542936D01*
X3190658Y-17542936D02*
X3181134Y-17552460D01*
X3181134Y-17552460D02*
X3162086Y-17561984D01*
X3162086Y-17561984D02*
X3143039Y-17561984D01*
X3143039Y-17561984D02*
X3123991Y-17552460D01*
X3123991Y-17552460D02*
X3114467Y-17542936D01*
X3114467Y-17542936D02*
X3104943Y-17523889D01*
X3104943Y-17523889D02*
X3095420Y-17485793D01*
X3095420Y-17485793D02*
X3095420Y-17438174D01*
X3095420Y-17438174D02*
X3104943Y-17400079D01*
X3104943Y-17400079D02*
X3114467Y-17381031D01*
X3114467Y-17381031D02*
X3123991Y-17371508D01*
X3123991Y-17371508D02*
X3143039Y-17361984D01*
X3295420Y-17561984D02*
X3295420Y-17428650D01*
X3295420Y-17447698D02*
X3304943Y-17438174D01*
X3304943Y-17438174D02*
X3323991Y-17428650D01*
X3323991Y-17428650D02*
X3352563Y-17428650D01*
X3352563Y-17428650D02*
X3371610Y-17438174D01*
X3371610Y-17438174D02*
X3381134Y-17457222D01*
X3381134Y-17457222D02*
X3381134Y-17561984D01*
X3381134Y-17457222D02*
X3390658Y-17438174D01*
X3390658Y-17438174D02*
X3409705Y-17428650D01*
X3409705Y-17428650D02*
X3438277Y-17428650D01*
X3438277Y-17428650D02*
X3457324Y-17438174D01*
X3457324Y-17438174D02*
X3466848Y-17457222D01*
X3466848Y-17457222D02*
X3466848Y-17561984D01*
X3562086Y-17561984D02*
X3562086Y-17428650D01*
X3562086Y-17447698D02*
X3571610Y-17438174D01*
X3571610Y-17438174D02*
X3590658Y-17428650D01*
X3590658Y-17428650D02*
X3619229Y-17428650D01*
X3619229Y-17428650D02*
X3638277Y-17438174D01*
X3638277Y-17438174D02*
X3647801Y-17457222D01*
X3647801Y-17457222D02*
X3647801Y-17561984D01*
X3647801Y-17457222D02*
X3657324Y-17438174D01*
X3657324Y-17438174D02*
X3676372Y-17428650D01*
X3676372Y-17428650D02*
X3704943Y-17428650D01*
X3704943Y-17428650D02*
X3723991Y-17438174D01*
X3723991Y-17438174D02*
X3733515Y-17457222D01*
X3733515Y-17457222D02*
X3733515Y-17561984D01*
X4123991Y-17352460D02*
X3952563Y-17609603D01*
X4381134Y-17361984D02*
X4400182Y-17361984D01*
X4400182Y-17361984D02*
X4419229Y-17371508D01*
X4419229Y-17371508D02*
X4428753Y-17381031D01*
X4428753Y-17381031D02*
X4438277Y-17400079D01*
X4438277Y-17400079D02*
X4447801Y-17438174D01*
X4447801Y-17438174D02*
X4447801Y-17485793D01*
X4447801Y-17485793D02*
X4438277Y-17523889D01*
X4438277Y-17523889D02*
X4428753Y-17542936D01*
X4428753Y-17542936D02*
X4419229Y-17552460D01*
X4419229Y-17552460D02*
X4400182Y-17561984D01*
X4400182Y-17561984D02*
X4381134Y-17561984D01*
X4381134Y-17561984D02*
X4362087Y-17552460D01*
X4362087Y-17552460D02*
X4352563Y-17542936D01*
X4352563Y-17542936D02*
X4343039Y-17523889D01*
X4343039Y-17523889D02*
X4333515Y-17485793D01*
X4333515Y-17485793D02*
X4333515Y-17438174D01*
X4333515Y-17438174D02*
X4343039Y-17400079D01*
X4343039Y-17400079D02*
X4352563Y-17381031D01*
X4352563Y-17381031D02*
X4362087Y-17371508D01*
X4362087Y-17371508D02*
X4381134Y-17361984D01*
X4533515Y-17542936D02*
X4543039Y-17552460D01*
X4543039Y-17552460D02*
X4533515Y-17561984D01*
X4533515Y-17561984D02*
X4523991Y-17552460D01*
X4523991Y-17552460D02*
X4533515Y-17542936D01*
X4533515Y-17542936D02*
X4533515Y-17561984D01*
X4666848Y-17361984D02*
X4685896Y-17361984D01*
X4685896Y-17361984D02*
X4704944Y-17371508D01*
X4704944Y-17371508D02*
X4714468Y-17381031D01*
X4714468Y-17381031D02*
X4723991Y-17400079D01*
X4723991Y-17400079D02*
X4733515Y-17438174D01*
X4733515Y-17438174D02*
X4733515Y-17485793D01*
X4733515Y-17485793D02*
X4723991Y-17523889D01*
X4723991Y-17523889D02*
X4714468Y-17542936D01*
X4714468Y-17542936D02*
X4704944Y-17552460D01*
X4704944Y-17552460D02*
X4685896Y-17561984D01*
X4685896Y-17561984D02*
X4666848Y-17561984D01*
X4666848Y-17561984D02*
X4647801Y-17552460D01*
X4647801Y-17552460D02*
X4638277Y-17542936D01*
X4638277Y-17542936D02*
X4628753Y-17523889D01*
X4628753Y-17523889D02*
X4619229Y-17485793D01*
X4619229Y-17485793D02*
X4619229Y-17438174D01*
X4619229Y-17438174D02*
X4628753Y-17400079D01*
X4628753Y-17400079D02*
X4638277Y-17381031D01*
X4638277Y-17381031D02*
X4647801Y-17371508D01*
X4647801Y-17371508D02*
X4666848Y-17361984D01*
X4800182Y-17361984D02*
X4923991Y-17361984D01*
X4923991Y-17361984D02*
X4857325Y-17438174D01*
X4857325Y-17438174D02*
X4885896Y-17438174D01*
X4885896Y-17438174D02*
X4904944Y-17447698D01*
X4904944Y-17447698D02*
X4914468Y-17457222D01*
X4914468Y-17457222D02*
X4923991Y-17476270D01*
X4923991Y-17476270D02*
X4923991Y-17523889D01*
X4923991Y-17523889D02*
X4914468Y-17542936D01*
X4914468Y-17542936D02*
X4904944Y-17552460D01*
X4904944Y-17552460D02*
X4885896Y-17561984D01*
X4885896Y-17561984D02*
X4828753Y-17561984D01*
X4828753Y-17561984D02*
X4809706Y-17552460D01*
X4809706Y-17552460D02*
X4800182Y-17542936D01*
X5019229Y-17561984D02*
X5057325Y-17561984D01*
X5057325Y-17561984D02*
X5076372Y-17552460D01*
X5076372Y-17552460D02*
X5085896Y-17542936D01*
X5085896Y-17542936D02*
X5104944Y-17514365D01*
X5104944Y-17514365D02*
X5114468Y-17476270D01*
X5114468Y-17476270D02*
X5114468Y-17400079D01*
X5114468Y-17400079D02*
X5104944Y-17381031D01*
X5104944Y-17381031D02*
X5095420Y-17371508D01*
X5095420Y-17371508D02*
X5076372Y-17361984D01*
X5076372Y-17361984D02*
X5038277Y-17361984D01*
X5038277Y-17361984D02*
X5019229Y-17371508D01*
X5019229Y-17371508D02*
X5009706Y-17381031D01*
X5009706Y-17381031D02*
X5000182Y-17400079D01*
X5000182Y-17400079D02*
X5000182Y-17447698D01*
X5000182Y-17447698D02*
X5009706Y-17466746D01*
X5009706Y-17466746D02*
X5019229Y-17476270D01*
X5019229Y-17476270D02*
X5038277Y-17485793D01*
X5038277Y-17485793D02*
X5076372Y-17485793D01*
X5076372Y-17485793D02*
X5095420Y-17476270D01*
X5095420Y-17476270D02*
X5104944Y-17466746D01*
X5104944Y-17466746D02*
X5114468Y-17447698D01*
X5285896Y-17428650D02*
X5285896Y-17561984D01*
X5238277Y-17352460D02*
X5190658Y-17495317D01*
X5190658Y-17495317D02*
X5314468Y-17495317D01*
X5381134Y-17361984D02*
X5381134Y-17400079D01*
X5457325Y-17361984D02*
X5457325Y-17400079D01*
X5752563Y-17638174D02*
X5743039Y-17628650D01*
X5743039Y-17628650D02*
X5723991Y-17600079D01*
X5723991Y-17600079D02*
X5714468Y-17581031D01*
X5714468Y-17581031D02*
X5704944Y-17552460D01*
X5704944Y-17552460D02*
X5695420Y-17504841D01*
X5695420Y-17504841D02*
X5695420Y-17466746D01*
X5695420Y-17466746D02*
X5704944Y-17419127D01*
X5704944Y-17419127D02*
X5714468Y-17390555D01*
X5714468Y-17390555D02*
X5723991Y-17371508D01*
X5723991Y-17371508D02*
X5743039Y-17342936D01*
X5743039Y-17342936D02*
X5752563Y-17333412D01*
X5809706Y-17361984D02*
X5933515Y-17361984D01*
X5933515Y-17361984D02*
X5866848Y-17438174D01*
X5866848Y-17438174D02*
X5895420Y-17438174D01*
X5895420Y-17438174D02*
X5914468Y-17447698D01*
X5914468Y-17447698D02*
X5923991Y-17457222D01*
X5923991Y-17457222D02*
X5933515Y-17476270D01*
X5933515Y-17476270D02*
X5933515Y-17523889D01*
X5933515Y-17523889D02*
X5923991Y-17542936D01*
X5923991Y-17542936D02*
X5914468Y-17552460D01*
X5914468Y-17552460D02*
X5895420Y-17561984D01*
X5895420Y-17561984D02*
X5838277Y-17561984D01*
X5838277Y-17561984D02*
X5819229Y-17552460D01*
X5819229Y-17552460D02*
X5809706Y-17542936D01*
X6047801Y-17447698D02*
X6028753Y-17438174D01*
X6028753Y-17438174D02*
X6019229Y-17428650D01*
X6019229Y-17428650D02*
X6009706Y-17409603D01*
X6009706Y-17409603D02*
X6009706Y-17400079D01*
X6009706Y-17400079D02*
X6019229Y-17381031D01*
X6019229Y-17381031D02*
X6028753Y-17371508D01*
X6028753Y-17371508D02*
X6047801Y-17361984D01*
X6047801Y-17361984D02*
X6085896Y-17361984D01*
X6085896Y-17361984D02*
X6104944Y-17371508D01*
X6104944Y-17371508D02*
X6114468Y-17381031D01*
X6114468Y-17381031D02*
X6123991Y-17400079D01*
X6123991Y-17400079D02*
X6123991Y-17409603D01*
X6123991Y-17409603D02*
X6114468Y-17428650D01*
X6114468Y-17428650D02*
X6104944Y-17438174D01*
X6104944Y-17438174D02*
X6085896Y-17447698D01*
X6085896Y-17447698D02*
X6047801Y-17447698D01*
X6047801Y-17447698D02*
X6028753Y-17457222D01*
X6028753Y-17457222D02*
X6019229Y-17466746D01*
X6019229Y-17466746D02*
X6009706Y-17485793D01*
X6009706Y-17485793D02*
X6009706Y-17523889D01*
X6009706Y-17523889D02*
X6019229Y-17542936D01*
X6019229Y-17542936D02*
X6028753Y-17552460D01*
X6028753Y-17552460D02*
X6047801Y-17561984D01*
X6047801Y-17561984D02*
X6085896Y-17561984D01*
X6085896Y-17561984D02*
X6104944Y-17552460D01*
X6104944Y-17552460D02*
X6114468Y-17542936D01*
X6114468Y-17542936D02*
X6123991Y-17523889D01*
X6123991Y-17523889D02*
X6123991Y-17485793D01*
X6123991Y-17485793D02*
X6114468Y-17466746D01*
X6114468Y-17466746D02*
X6104944Y-17457222D01*
X6104944Y-17457222D02*
X6085896Y-17447698D01*
X6362087Y-17561984D02*
X6362087Y-17361984D01*
X6447801Y-17561984D02*
X6447801Y-17457222D01*
X6447801Y-17457222D02*
X6438277Y-17438174D01*
X6438277Y-17438174D02*
X6419230Y-17428650D01*
X6419230Y-17428650D02*
X6390658Y-17428650D01*
X6390658Y-17428650D02*
X6371610Y-17438174D01*
X6371610Y-17438174D02*
X6362087Y-17447698D01*
X6571610Y-17561984D02*
X6552563Y-17552460D01*
X6552563Y-17552460D02*
X6543039Y-17542936D01*
X6543039Y-17542936D02*
X6533515Y-17523889D01*
X6533515Y-17523889D02*
X6533515Y-17466746D01*
X6533515Y-17466746D02*
X6543039Y-17447698D01*
X6543039Y-17447698D02*
X6552563Y-17438174D01*
X6552563Y-17438174D02*
X6571610Y-17428650D01*
X6571610Y-17428650D02*
X6600182Y-17428650D01*
X6600182Y-17428650D02*
X6619230Y-17438174D01*
X6619230Y-17438174D02*
X6628753Y-17447698D01*
X6628753Y-17447698D02*
X6638277Y-17466746D01*
X6638277Y-17466746D02*
X6638277Y-17523889D01*
X6638277Y-17523889D02*
X6628753Y-17542936D01*
X6628753Y-17542936D02*
X6619230Y-17552460D01*
X6619230Y-17552460D02*
X6600182Y-17561984D01*
X6600182Y-17561984D02*
X6571610Y-17561984D01*
X6752563Y-17561984D02*
X6733515Y-17552460D01*
X6733515Y-17552460D02*
X6723991Y-17533412D01*
X6723991Y-17533412D02*
X6723991Y-17361984D01*
X6904944Y-17552460D02*
X6885896Y-17561984D01*
X6885896Y-17561984D02*
X6847801Y-17561984D01*
X6847801Y-17561984D02*
X6828753Y-17552460D01*
X6828753Y-17552460D02*
X6819230Y-17533412D01*
X6819230Y-17533412D02*
X6819230Y-17457222D01*
X6819230Y-17457222D02*
X6828753Y-17438174D01*
X6828753Y-17438174D02*
X6847801Y-17428650D01*
X6847801Y-17428650D02*
X6885896Y-17428650D01*
X6885896Y-17428650D02*
X6904944Y-17438174D01*
X6904944Y-17438174D02*
X6914468Y-17457222D01*
X6914468Y-17457222D02*
X6914468Y-17476270D01*
X6914468Y-17476270D02*
X6819230Y-17495317D01*
X6990658Y-17552460D02*
X7009706Y-17561984D01*
X7009706Y-17561984D02*
X7047801Y-17561984D01*
X7047801Y-17561984D02*
X7066849Y-17552460D01*
X7066849Y-17552460D02*
X7076372Y-17533412D01*
X7076372Y-17533412D02*
X7076372Y-17523889D01*
X7076372Y-17523889D02*
X7066849Y-17504841D01*
X7066849Y-17504841D02*
X7047801Y-17495317D01*
X7047801Y-17495317D02*
X7019230Y-17495317D01*
X7019230Y-17495317D02*
X7000182Y-17485793D01*
X7000182Y-17485793D02*
X6990658Y-17466746D01*
X6990658Y-17466746D02*
X6990658Y-17457222D01*
X6990658Y-17457222D02*
X7000182Y-17438174D01*
X7000182Y-17438174D02*
X7019230Y-17428650D01*
X7019230Y-17428650D02*
X7047801Y-17428650D01*
X7047801Y-17428650D02*
X7066849Y-17438174D01*
X7143039Y-17638174D02*
X7152563Y-17628650D01*
X7152563Y-17628650D02*
X7171611Y-17600079D01*
X7171611Y-17600079D02*
X7181134Y-17581031D01*
X7181134Y-17581031D02*
X7190658Y-17552460D01*
X7190658Y-17552460D02*
X7200182Y-17504841D01*
X7200182Y-17504841D02*
X7200182Y-17466746D01*
X7200182Y-17466746D02*
X7190658Y-17419127D01*
X7190658Y-17419127D02*
X7181134Y-17390555D01*
X7181134Y-17390555D02*
X7171611Y-17371508D01*
X7171611Y-17371508D02*
X7152563Y-17342936D01*
X7152563Y-17342936D02*
X7143039Y-17333412D01*
D13*
X2161391Y-17773391D02*
X2161391Y-17695609D01*
X2083609Y-17695609D01*
X2083609Y-17773391D01*
X2161391Y-17773391D01*
D11*
X2543039Y-17825984D02*
X2428753Y-17825984D01*
X2485896Y-17825984D02*
X2485896Y-17625984D01*
X2485896Y-17625984D02*
X2466848Y-17654555D01*
X2466848Y-17654555D02*
X2447801Y-17673603D01*
X2447801Y-17673603D02*
X2428753Y-17683127D01*
X2628753Y-17806936D02*
X2638277Y-17816460D01*
X2638277Y-17816460D02*
X2628753Y-17825984D01*
X2628753Y-17825984D02*
X2619229Y-17816460D01*
X2619229Y-17816460D02*
X2628753Y-17806936D01*
X2628753Y-17806936D02*
X2628753Y-17825984D01*
X2828753Y-17825984D02*
X2714467Y-17825984D01*
X2771610Y-17825984D02*
X2771610Y-17625984D01*
X2771610Y-17625984D02*
X2752563Y-17654555D01*
X2752563Y-17654555D02*
X2733515Y-17673603D01*
X2733515Y-17673603D02*
X2714467Y-17683127D01*
X2952562Y-17625984D02*
X2971610Y-17625984D01*
X2971610Y-17625984D02*
X2990658Y-17635508D01*
X2990658Y-17635508D02*
X3000182Y-17645031D01*
X3000182Y-17645031D02*
X3009705Y-17664079D01*
X3009705Y-17664079D02*
X3019229Y-17702174D01*
X3019229Y-17702174D02*
X3019229Y-17749793D01*
X3019229Y-17749793D02*
X3009705Y-17787889D01*
X3009705Y-17787889D02*
X3000182Y-17806936D01*
X3000182Y-17806936D02*
X2990658Y-17816460D01*
X2990658Y-17816460D02*
X2971610Y-17825984D01*
X2971610Y-17825984D02*
X2952562Y-17825984D01*
X2952562Y-17825984D02*
X2933515Y-17816460D01*
X2933515Y-17816460D02*
X2923991Y-17806936D01*
X2923991Y-17806936D02*
X2914467Y-17787889D01*
X2914467Y-17787889D02*
X2904943Y-17749793D01*
X2904943Y-17749793D02*
X2904943Y-17702174D01*
X2904943Y-17702174D02*
X2914467Y-17664079D01*
X2914467Y-17664079D02*
X2923991Y-17645031D01*
X2923991Y-17645031D02*
X2933515Y-17635508D01*
X2933515Y-17635508D02*
X2952562Y-17625984D01*
X3143039Y-17625984D02*
X3162086Y-17625984D01*
X3162086Y-17625984D02*
X3181134Y-17635508D01*
X3181134Y-17635508D02*
X3190658Y-17645031D01*
X3190658Y-17645031D02*
X3200182Y-17664079D01*
X3200182Y-17664079D02*
X3209705Y-17702174D01*
X3209705Y-17702174D02*
X3209705Y-17749793D01*
X3209705Y-17749793D02*
X3200182Y-17787889D01*
X3200182Y-17787889D02*
X3190658Y-17806936D01*
X3190658Y-17806936D02*
X3181134Y-17816460D01*
X3181134Y-17816460D02*
X3162086Y-17825984D01*
X3162086Y-17825984D02*
X3143039Y-17825984D01*
X3143039Y-17825984D02*
X3123991Y-17816460D01*
X3123991Y-17816460D02*
X3114467Y-17806936D01*
X3114467Y-17806936D02*
X3104943Y-17787889D01*
X3104943Y-17787889D02*
X3095420Y-17749793D01*
X3095420Y-17749793D02*
X3095420Y-17702174D01*
X3095420Y-17702174D02*
X3104943Y-17664079D01*
X3104943Y-17664079D02*
X3114467Y-17645031D01*
X3114467Y-17645031D02*
X3123991Y-17635508D01*
X3123991Y-17635508D02*
X3143039Y-17625984D01*
X3295420Y-17825984D02*
X3295420Y-17692650D01*
X3295420Y-17711698D02*
X3304943Y-17702174D01*
X3304943Y-17702174D02*
X3323991Y-17692650D01*
X3323991Y-17692650D02*
X3352563Y-17692650D01*
X3352563Y-17692650D02*
X3371610Y-17702174D01*
X3371610Y-17702174D02*
X3381134Y-17721222D01*
X3381134Y-17721222D02*
X3381134Y-17825984D01*
X3381134Y-17721222D02*
X3390658Y-17702174D01*
X3390658Y-17702174D02*
X3409705Y-17692650D01*
X3409705Y-17692650D02*
X3438277Y-17692650D01*
X3438277Y-17692650D02*
X3457324Y-17702174D01*
X3457324Y-17702174D02*
X3466848Y-17721222D01*
X3466848Y-17721222D02*
X3466848Y-17825984D01*
X3562086Y-17825984D02*
X3562086Y-17692650D01*
X3562086Y-17711698D02*
X3571610Y-17702174D01*
X3571610Y-17702174D02*
X3590658Y-17692650D01*
X3590658Y-17692650D02*
X3619229Y-17692650D01*
X3619229Y-17692650D02*
X3638277Y-17702174D01*
X3638277Y-17702174D02*
X3647801Y-17721222D01*
X3647801Y-17721222D02*
X3647801Y-17825984D01*
X3647801Y-17721222D02*
X3657324Y-17702174D01*
X3657324Y-17702174D02*
X3676372Y-17692650D01*
X3676372Y-17692650D02*
X3704943Y-17692650D01*
X3704943Y-17692650D02*
X3723991Y-17702174D01*
X3723991Y-17702174D02*
X3733515Y-17721222D01*
X3733515Y-17721222D02*
X3733515Y-17825984D01*
X4123991Y-17616460D02*
X3952563Y-17873603D01*
X4381134Y-17625984D02*
X4400182Y-17625984D01*
X4400182Y-17625984D02*
X4419229Y-17635508D01*
X4419229Y-17635508D02*
X4428753Y-17645031D01*
X4428753Y-17645031D02*
X4438277Y-17664079D01*
X4438277Y-17664079D02*
X4447801Y-17702174D01*
X4447801Y-17702174D02*
X4447801Y-17749793D01*
X4447801Y-17749793D02*
X4438277Y-17787889D01*
X4438277Y-17787889D02*
X4428753Y-17806936D01*
X4428753Y-17806936D02*
X4419229Y-17816460D01*
X4419229Y-17816460D02*
X4400182Y-17825984D01*
X4400182Y-17825984D02*
X4381134Y-17825984D01*
X4381134Y-17825984D02*
X4362087Y-17816460D01*
X4362087Y-17816460D02*
X4352563Y-17806936D01*
X4352563Y-17806936D02*
X4343039Y-17787889D01*
X4343039Y-17787889D02*
X4333515Y-17749793D01*
X4333515Y-17749793D02*
X4333515Y-17702174D01*
X4333515Y-17702174D02*
X4343039Y-17664079D01*
X4343039Y-17664079D02*
X4352563Y-17645031D01*
X4352563Y-17645031D02*
X4362087Y-17635508D01*
X4362087Y-17635508D02*
X4381134Y-17625984D01*
X4533515Y-17806936D02*
X4543039Y-17816460D01*
X4543039Y-17816460D02*
X4533515Y-17825984D01*
X4533515Y-17825984D02*
X4523991Y-17816460D01*
X4523991Y-17816460D02*
X4533515Y-17806936D01*
X4533515Y-17806936D02*
X4533515Y-17825984D01*
X4666848Y-17625984D02*
X4685896Y-17625984D01*
X4685896Y-17625984D02*
X4704944Y-17635508D01*
X4704944Y-17635508D02*
X4714468Y-17645031D01*
X4714468Y-17645031D02*
X4723991Y-17664079D01*
X4723991Y-17664079D02*
X4733515Y-17702174D01*
X4733515Y-17702174D02*
X4733515Y-17749793D01*
X4733515Y-17749793D02*
X4723991Y-17787889D01*
X4723991Y-17787889D02*
X4714468Y-17806936D01*
X4714468Y-17806936D02*
X4704944Y-17816460D01*
X4704944Y-17816460D02*
X4685896Y-17825984D01*
X4685896Y-17825984D02*
X4666848Y-17825984D01*
X4666848Y-17825984D02*
X4647801Y-17816460D01*
X4647801Y-17816460D02*
X4638277Y-17806936D01*
X4638277Y-17806936D02*
X4628753Y-17787889D01*
X4628753Y-17787889D02*
X4619229Y-17749793D01*
X4619229Y-17749793D02*
X4619229Y-17702174D01*
X4619229Y-17702174D02*
X4628753Y-17664079D01*
X4628753Y-17664079D02*
X4638277Y-17645031D01*
X4638277Y-17645031D02*
X4647801Y-17635508D01*
X4647801Y-17635508D02*
X4666848Y-17625984D01*
X4904944Y-17692650D02*
X4904944Y-17825984D01*
X4857325Y-17616460D02*
X4809706Y-17759317D01*
X4809706Y-17759317D02*
X4933515Y-17759317D01*
X4990658Y-17625984D02*
X5114468Y-17625984D01*
X5114468Y-17625984D02*
X5047801Y-17702174D01*
X5047801Y-17702174D02*
X5076372Y-17702174D01*
X5076372Y-17702174D02*
X5095420Y-17711698D01*
X5095420Y-17711698D02*
X5104944Y-17721222D01*
X5104944Y-17721222D02*
X5114468Y-17740270D01*
X5114468Y-17740270D02*
X5114468Y-17787889D01*
X5114468Y-17787889D02*
X5104944Y-17806936D01*
X5104944Y-17806936D02*
X5095420Y-17816460D01*
X5095420Y-17816460D02*
X5076372Y-17825984D01*
X5076372Y-17825984D02*
X5019229Y-17825984D01*
X5019229Y-17825984D02*
X5000182Y-17816460D01*
X5000182Y-17816460D02*
X4990658Y-17806936D01*
X5181134Y-17625984D02*
X5304944Y-17625984D01*
X5304944Y-17625984D02*
X5238277Y-17702174D01*
X5238277Y-17702174D02*
X5266849Y-17702174D01*
X5266849Y-17702174D02*
X5285896Y-17711698D01*
X5285896Y-17711698D02*
X5295420Y-17721222D01*
X5295420Y-17721222D02*
X5304944Y-17740270D01*
X5304944Y-17740270D02*
X5304944Y-17787889D01*
X5304944Y-17787889D02*
X5295420Y-17806936D01*
X5295420Y-17806936D02*
X5285896Y-17816460D01*
X5285896Y-17816460D02*
X5266849Y-17825984D01*
X5266849Y-17825984D02*
X5209706Y-17825984D01*
X5209706Y-17825984D02*
X5190658Y-17816460D01*
X5190658Y-17816460D02*
X5181134Y-17806936D01*
X5381134Y-17625984D02*
X5381134Y-17664079D01*
X5457325Y-17625984D02*
X5457325Y-17664079D01*
X5752563Y-17902174D02*
X5743039Y-17892650D01*
X5743039Y-17892650D02*
X5723991Y-17864079D01*
X5723991Y-17864079D02*
X5714468Y-17845031D01*
X5714468Y-17845031D02*
X5704944Y-17816460D01*
X5704944Y-17816460D02*
X5695420Y-17768841D01*
X5695420Y-17768841D02*
X5695420Y-17730746D01*
X5695420Y-17730746D02*
X5704944Y-17683127D01*
X5704944Y-17683127D02*
X5714468Y-17654555D01*
X5714468Y-17654555D02*
X5723991Y-17635508D01*
X5723991Y-17635508D02*
X5743039Y-17606936D01*
X5743039Y-17606936D02*
X5752563Y-17597412D01*
X5933515Y-17825984D02*
X5819229Y-17825984D01*
X5876372Y-17825984D02*
X5876372Y-17625984D01*
X5876372Y-17625984D02*
X5857325Y-17654555D01*
X5857325Y-17654555D02*
X5838277Y-17673603D01*
X5838277Y-17673603D02*
X5819229Y-17683127D01*
X6047801Y-17711698D02*
X6028753Y-17702174D01*
X6028753Y-17702174D02*
X6019229Y-17692650D01*
X6019229Y-17692650D02*
X6009706Y-17673603D01*
X6009706Y-17673603D02*
X6009706Y-17664079D01*
X6009706Y-17664079D02*
X6019229Y-17645031D01*
X6019229Y-17645031D02*
X6028753Y-17635508D01*
X6028753Y-17635508D02*
X6047801Y-17625984D01*
X6047801Y-17625984D02*
X6085896Y-17625984D01*
X6085896Y-17625984D02*
X6104944Y-17635508D01*
X6104944Y-17635508D02*
X6114468Y-17645031D01*
X6114468Y-17645031D02*
X6123991Y-17664079D01*
X6123991Y-17664079D02*
X6123991Y-17673603D01*
X6123991Y-17673603D02*
X6114468Y-17692650D01*
X6114468Y-17692650D02*
X6104944Y-17702174D01*
X6104944Y-17702174D02*
X6085896Y-17711698D01*
X6085896Y-17711698D02*
X6047801Y-17711698D01*
X6047801Y-17711698D02*
X6028753Y-17721222D01*
X6028753Y-17721222D02*
X6019229Y-17730746D01*
X6019229Y-17730746D02*
X6009706Y-17749793D01*
X6009706Y-17749793D02*
X6009706Y-17787889D01*
X6009706Y-17787889D02*
X6019229Y-17806936D01*
X6019229Y-17806936D02*
X6028753Y-17816460D01*
X6028753Y-17816460D02*
X6047801Y-17825984D01*
X6047801Y-17825984D02*
X6085896Y-17825984D01*
X6085896Y-17825984D02*
X6104944Y-17816460D01*
X6104944Y-17816460D02*
X6114468Y-17806936D01*
X6114468Y-17806936D02*
X6123991Y-17787889D01*
X6123991Y-17787889D02*
X6123991Y-17749793D01*
X6123991Y-17749793D02*
X6114468Y-17730746D01*
X6114468Y-17730746D02*
X6104944Y-17721222D01*
X6104944Y-17721222D02*
X6085896Y-17711698D01*
X6362087Y-17825984D02*
X6362087Y-17625984D01*
X6447801Y-17825984D02*
X6447801Y-17721222D01*
X6447801Y-17721222D02*
X6438277Y-17702174D01*
X6438277Y-17702174D02*
X6419230Y-17692650D01*
X6419230Y-17692650D02*
X6390658Y-17692650D01*
X6390658Y-17692650D02*
X6371610Y-17702174D01*
X6371610Y-17702174D02*
X6362087Y-17711698D01*
X6571610Y-17825984D02*
X6552563Y-17816460D01*
X6552563Y-17816460D02*
X6543039Y-17806936D01*
X6543039Y-17806936D02*
X6533515Y-17787889D01*
X6533515Y-17787889D02*
X6533515Y-17730746D01*
X6533515Y-17730746D02*
X6543039Y-17711698D01*
X6543039Y-17711698D02*
X6552563Y-17702174D01*
X6552563Y-17702174D02*
X6571610Y-17692650D01*
X6571610Y-17692650D02*
X6600182Y-17692650D01*
X6600182Y-17692650D02*
X6619230Y-17702174D01*
X6619230Y-17702174D02*
X6628753Y-17711698D01*
X6628753Y-17711698D02*
X6638277Y-17730746D01*
X6638277Y-17730746D02*
X6638277Y-17787889D01*
X6638277Y-17787889D02*
X6628753Y-17806936D01*
X6628753Y-17806936D02*
X6619230Y-17816460D01*
X6619230Y-17816460D02*
X6600182Y-17825984D01*
X6600182Y-17825984D02*
X6571610Y-17825984D01*
X6752563Y-17825984D02*
X6733515Y-17816460D01*
X6733515Y-17816460D02*
X6723991Y-17797412D01*
X6723991Y-17797412D02*
X6723991Y-17625984D01*
X6904944Y-17816460D02*
X6885896Y-17825984D01*
X6885896Y-17825984D02*
X6847801Y-17825984D01*
X6847801Y-17825984D02*
X6828753Y-17816460D01*
X6828753Y-17816460D02*
X6819230Y-17797412D01*
X6819230Y-17797412D02*
X6819230Y-17721222D01*
X6819230Y-17721222D02*
X6828753Y-17702174D01*
X6828753Y-17702174D02*
X6847801Y-17692650D01*
X6847801Y-17692650D02*
X6885896Y-17692650D01*
X6885896Y-17692650D02*
X6904944Y-17702174D01*
X6904944Y-17702174D02*
X6914468Y-17721222D01*
X6914468Y-17721222D02*
X6914468Y-17740270D01*
X6914468Y-17740270D02*
X6819230Y-17759317D01*
X6990658Y-17816460D02*
X7009706Y-17825984D01*
X7009706Y-17825984D02*
X7047801Y-17825984D01*
X7047801Y-17825984D02*
X7066849Y-17816460D01*
X7066849Y-17816460D02*
X7076372Y-17797412D01*
X7076372Y-17797412D02*
X7076372Y-17787889D01*
X7076372Y-17787889D02*
X7066849Y-17768841D01*
X7066849Y-17768841D02*
X7047801Y-17759317D01*
X7047801Y-17759317D02*
X7019230Y-17759317D01*
X7019230Y-17759317D02*
X7000182Y-17749793D01*
X7000182Y-17749793D02*
X6990658Y-17730746D01*
X6990658Y-17730746D02*
X6990658Y-17721222D01*
X6990658Y-17721222D02*
X7000182Y-17702174D01*
X7000182Y-17702174D02*
X7019230Y-17692650D01*
X7019230Y-17692650D02*
X7047801Y-17692650D01*
X7047801Y-17692650D02*
X7066849Y-17702174D01*
X7143039Y-17902174D02*
X7152563Y-17892650D01*
X7152563Y-17892650D02*
X7171611Y-17864079D01*
X7171611Y-17864079D02*
X7181134Y-17845031D01*
X7181134Y-17845031D02*
X7190658Y-17816460D01*
X7190658Y-17816460D02*
X7200182Y-17768841D01*
X7200182Y-17768841D02*
X7200182Y-17730746D01*
X7200182Y-17730746D02*
X7190658Y-17683127D01*
X7190658Y-17683127D02*
X7181134Y-17654555D01*
X7181134Y-17654555D02*
X7171611Y-17635508D01*
X7171611Y-17635508D02*
X7152563Y-17606936D01*
X7152563Y-17606936D02*
X7143039Y-17597412D01*
D14*
X2118000Y-18058000D02*
X2177500Y-17998500D01*
X2118000Y-17939000D01*
X2058500Y-17998500D01*
X2118000Y-18058000D01*
D11*
X2543039Y-18089984D02*
X2428753Y-18089984D01*
X2485896Y-18089984D02*
X2485896Y-17889984D01*
X2485896Y-17889984D02*
X2466848Y-17918555D01*
X2466848Y-17918555D02*
X2447801Y-17937603D01*
X2447801Y-17937603D02*
X2428753Y-17947127D01*
X2628753Y-18070936D02*
X2638277Y-18080460D01*
X2638277Y-18080460D02*
X2628753Y-18089984D01*
X2628753Y-18089984D02*
X2619229Y-18080460D01*
X2619229Y-18080460D02*
X2628753Y-18070936D01*
X2628753Y-18070936D02*
X2628753Y-18089984D01*
X2828753Y-18089984D02*
X2714467Y-18089984D01*
X2771610Y-18089984D02*
X2771610Y-17889984D01*
X2771610Y-17889984D02*
X2752563Y-17918555D01*
X2752563Y-17918555D02*
X2733515Y-17937603D01*
X2733515Y-17937603D02*
X2714467Y-17947127D01*
X2923991Y-18089984D02*
X2962086Y-18089984D01*
X2962086Y-18089984D02*
X2981134Y-18080460D01*
X2981134Y-18080460D02*
X2990658Y-18070936D01*
X2990658Y-18070936D02*
X3009705Y-18042365D01*
X3009705Y-18042365D02*
X3019229Y-18004270D01*
X3019229Y-18004270D02*
X3019229Y-17928079D01*
X3019229Y-17928079D02*
X3009705Y-17909031D01*
X3009705Y-17909031D02*
X3000182Y-17899508D01*
X3000182Y-17899508D02*
X2981134Y-17889984D01*
X2981134Y-17889984D02*
X2943039Y-17889984D01*
X2943039Y-17889984D02*
X2923991Y-17899508D01*
X2923991Y-17899508D02*
X2914467Y-17909031D01*
X2914467Y-17909031D02*
X2904943Y-17928079D01*
X2904943Y-17928079D02*
X2904943Y-17975698D01*
X2904943Y-17975698D02*
X2914467Y-17994746D01*
X2914467Y-17994746D02*
X2923991Y-18004270D01*
X2923991Y-18004270D02*
X2943039Y-18013793D01*
X2943039Y-18013793D02*
X2981134Y-18013793D01*
X2981134Y-18013793D02*
X3000182Y-18004270D01*
X3000182Y-18004270D02*
X3009705Y-17994746D01*
X3009705Y-17994746D02*
X3019229Y-17975698D01*
X3143039Y-17889984D02*
X3162086Y-17889984D01*
X3162086Y-17889984D02*
X3181134Y-17899508D01*
X3181134Y-17899508D02*
X3190658Y-17909031D01*
X3190658Y-17909031D02*
X3200182Y-17928079D01*
X3200182Y-17928079D02*
X3209705Y-17966174D01*
X3209705Y-17966174D02*
X3209705Y-18013793D01*
X3209705Y-18013793D02*
X3200182Y-18051889D01*
X3200182Y-18051889D02*
X3190658Y-18070936D01*
X3190658Y-18070936D02*
X3181134Y-18080460D01*
X3181134Y-18080460D02*
X3162086Y-18089984D01*
X3162086Y-18089984D02*
X3143039Y-18089984D01*
X3143039Y-18089984D02*
X3123991Y-18080460D01*
X3123991Y-18080460D02*
X3114467Y-18070936D01*
X3114467Y-18070936D02*
X3104943Y-18051889D01*
X3104943Y-18051889D02*
X3095420Y-18013793D01*
X3095420Y-18013793D02*
X3095420Y-17966174D01*
X3095420Y-17966174D02*
X3104943Y-17928079D01*
X3104943Y-17928079D02*
X3114467Y-17909031D01*
X3114467Y-17909031D02*
X3123991Y-17899508D01*
X3123991Y-17899508D02*
X3143039Y-17889984D01*
X3295420Y-18089984D02*
X3295420Y-17956650D01*
X3295420Y-17975698D02*
X3304943Y-17966174D01*
X3304943Y-17966174D02*
X3323991Y-17956650D01*
X3323991Y-17956650D02*
X3352563Y-17956650D01*
X3352563Y-17956650D02*
X3371610Y-17966174D01*
X3371610Y-17966174D02*
X3381134Y-17985222D01*
X3381134Y-17985222D02*
X3381134Y-18089984D01*
X3381134Y-17985222D02*
X3390658Y-17966174D01*
X3390658Y-17966174D02*
X3409705Y-17956650D01*
X3409705Y-17956650D02*
X3438277Y-17956650D01*
X3438277Y-17956650D02*
X3457324Y-17966174D01*
X3457324Y-17966174D02*
X3466848Y-17985222D01*
X3466848Y-17985222D02*
X3466848Y-18089984D01*
X3562086Y-18089984D02*
X3562086Y-17956650D01*
X3562086Y-17975698D02*
X3571610Y-17966174D01*
X3571610Y-17966174D02*
X3590658Y-17956650D01*
X3590658Y-17956650D02*
X3619229Y-17956650D01*
X3619229Y-17956650D02*
X3638277Y-17966174D01*
X3638277Y-17966174D02*
X3647801Y-17985222D01*
X3647801Y-17985222D02*
X3647801Y-18089984D01*
X3647801Y-17985222D02*
X3657324Y-17966174D01*
X3657324Y-17966174D02*
X3676372Y-17956650D01*
X3676372Y-17956650D02*
X3704943Y-17956650D01*
X3704943Y-17956650D02*
X3723991Y-17966174D01*
X3723991Y-17966174D02*
X3733515Y-17985222D01*
X3733515Y-17985222D02*
X3733515Y-18089984D01*
X4123991Y-17880460D02*
X3952563Y-18137603D01*
X4381134Y-17889984D02*
X4400182Y-17889984D01*
X4400182Y-17889984D02*
X4419229Y-17899508D01*
X4419229Y-17899508D02*
X4428753Y-17909031D01*
X4428753Y-17909031D02*
X4438277Y-17928079D01*
X4438277Y-17928079D02*
X4447801Y-17966174D01*
X4447801Y-17966174D02*
X4447801Y-18013793D01*
X4447801Y-18013793D02*
X4438277Y-18051889D01*
X4438277Y-18051889D02*
X4428753Y-18070936D01*
X4428753Y-18070936D02*
X4419229Y-18080460D01*
X4419229Y-18080460D02*
X4400182Y-18089984D01*
X4400182Y-18089984D02*
X4381134Y-18089984D01*
X4381134Y-18089984D02*
X4362087Y-18080460D01*
X4362087Y-18080460D02*
X4352563Y-18070936D01*
X4352563Y-18070936D02*
X4343039Y-18051889D01*
X4343039Y-18051889D02*
X4333515Y-18013793D01*
X4333515Y-18013793D02*
X4333515Y-17966174D01*
X4333515Y-17966174D02*
X4343039Y-17928079D01*
X4343039Y-17928079D02*
X4352563Y-17909031D01*
X4352563Y-17909031D02*
X4362087Y-17899508D01*
X4362087Y-17899508D02*
X4381134Y-17889984D01*
X4533515Y-18070936D02*
X4543039Y-18080460D01*
X4543039Y-18080460D02*
X4533515Y-18089984D01*
X4533515Y-18089984D02*
X4523991Y-18080460D01*
X4523991Y-18080460D02*
X4533515Y-18070936D01*
X4533515Y-18070936D02*
X4533515Y-18089984D01*
X4666848Y-17889984D02*
X4685896Y-17889984D01*
X4685896Y-17889984D02*
X4704944Y-17899508D01*
X4704944Y-17899508D02*
X4714468Y-17909031D01*
X4714468Y-17909031D02*
X4723991Y-17928079D01*
X4723991Y-17928079D02*
X4733515Y-17966174D01*
X4733515Y-17966174D02*
X4733515Y-18013793D01*
X4733515Y-18013793D02*
X4723991Y-18051889D01*
X4723991Y-18051889D02*
X4714468Y-18070936D01*
X4714468Y-18070936D02*
X4704944Y-18080460D01*
X4704944Y-18080460D02*
X4685896Y-18089984D01*
X4685896Y-18089984D02*
X4666848Y-18089984D01*
X4666848Y-18089984D02*
X4647801Y-18080460D01*
X4647801Y-18080460D02*
X4638277Y-18070936D01*
X4638277Y-18070936D02*
X4628753Y-18051889D01*
X4628753Y-18051889D02*
X4619229Y-18013793D01*
X4619229Y-18013793D02*
X4619229Y-17966174D01*
X4619229Y-17966174D02*
X4628753Y-17928079D01*
X4628753Y-17928079D02*
X4638277Y-17909031D01*
X4638277Y-17909031D02*
X4647801Y-17899508D01*
X4647801Y-17899508D02*
X4666848Y-17889984D01*
X4904944Y-17956650D02*
X4904944Y-18089984D01*
X4857325Y-17880460D02*
X4809706Y-18023317D01*
X4809706Y-18023317D02*
X4933515Y-18023317D01*
X5095420Y-17889984D02*
X5057325Y-17889984D01*
X5057325Y-17889984D02*
X5038277Y-17899508D01*
X5038277Y-17899508D02*
X5028753Y-17909031D01*
X5028753Y-17909031D02*
X5009706Y-17937603D01*
X5009706Y-17937603D02*
X5000182Y-17975698D01*
X5000182Y-17975698D02*
X5000182Y-18051889D01*
X5000182Y-18051889D02*
X5009706Y-18070936D01*
X5009706Y-18070936D02*
X5019229Y-18080460D01*
X5019229Y-18080460D02*
X5038277Y-18089984D01*
X5038277Y-18089984D02*
X5076372Y-18089984D01*
X5076372Y-18089984D02*
X5095420Y-18080460D01*
X5095420Y-18080460D02*
X5104944Y-18070936D01*
X5104944Y-18070936D02*
X5114468Y-18051889D01*
X5114468Y-18051889D02*
X5114468Y-18004270D01*
X5114468Y-18004270D02*
X5104944Y-17985222D01*
X5104944Y-17985222D02*
X5095420Y-17975698D01*
X5095420Y-17975698D02*
X5076372Y-17966174D01*
X5076372Y-17966174D02*
X5038277Y-17966174D01*
X5038277Y-17966174D02*
X5019229Y-17975698D01*
X5019229Y-17975698D02*
X5009706Y-17985222D01*
X5009706Y-17985222D02*
X5000182Y-18004270D01*
X5209706Y-18089984D02*
X5247801Y-18089984D01*
X5247801Y-18089984D02*
X5266849Y-18080460D01*
X5266849Y-18080460D02*
X5276372Y-18070936D01*
X5276372Y-18070936D02*
X5295420Y-18042365D01*
X5295420Y-18042365D02*
X5304944Y-18004270D01*
X5304944Y-18004270D02*
X5304944Y-17928079D01*
X5304944Y-17928079D02*
X5295420Y-17909031D01*
X5295420Y-17909031D02*
X5285896Y-17899508D01*
X5285896Y-17899508D02*
X5266849Y-17889984D01*
X5266849Y-17889984D02*
X5228753Y-17889984D01*
X5228753Y-17889984D02*
X5209706Y-17899508D01*
X5209706Y-17899508D02*
X5200182Y-17909031D01*
X5200182Y-17909031D02*
X5190658Y-17928079D01*
X5190658Y-17928079D02*
X5190658Y-17975698D01*
X5190658Y-17975698D02*
X5200182Y-17994746D01*
X5200182Y-17994746D02*
X5209706Y-18004270D01*
X5209706Y-18004270D02*
X5228753Y-18013793D01*
X5228753Y-18013793D02*
X5266849Y-18013793D01*
X5266849Y-18013793D02*
X5285896Y-18004270D01*
X5285896Y-18004270D02*
X5295420Y-17994746D01*
X5295420Y-17994746D02*
X5304944Y-17975698D01*
X5381134Y-17889984D02*
X5381134Y-17928079D01*
X5457325Y-17889984D02*
X5457325Y-17928079D01*
X5752563Y-18166174D02*
X5743039Y-18156650D01*
X5743039Y-18156650D02*
X5723991Y-18128079D01*
X5723991Y-18128079D02*
X5714468Y-18109031D01*
X5714468Y-18109031D02*
X5704944Y-18080460D01*
X5704944Y-18080460D02*
X5695420Y-18032841D01*
X5695420Y-18032841D02*
X5695420Y-17994746D01*
X5695420Y-17994746D02*
X5704944Y-17947127D01*
X5704944Y-17947127D02*
X5714468Y-17918555D01*
X5714468Y-17918555D02*
X5723991Y-17899508D01*
X5723991Y-17899508D02*
X5743039Y-17870936D01*
X5743039Y-17870936D02*
X5752563Y-17861412D01*
X5809706Y-17889984D02*
X5933515Y-17889984D01*
X5933515Y-17889984D02*
X5866848Y-17966174D01*
X5866848Y-17966174D02*
X5895420Y-17966174D01*
X5895420Y-17966174D02*
X5914468Y-17975698D01*
X5914468Y-17975698D02*
X5923991Y-17985222D01*
X5923991Y-17985222D02*
X5933515Y-18004270D01*
X5933515Y-18004270D02*
X5933515Y-18051889D01*
X5933515Y-18051889D02*
X5923991Y-18070936D01*
X5923991Y-18070936D02*
X5914468Y-18080460D01*
X5914468Y-18080460D02*
X5895420Y-18089984D01*
X5895420Y-18089984D02*
X5838277Y-18089984D01*
X5838277Y-18089984D02*
X5819229Y-18080460D01*
X5819229Y-18080460D02*
X5809706Y-18070936D01*
X6028753Y-18089984D02*
X6066848Y-18089984D01*
X6066848Y-18089984D02*
X6085896Y-18080460D01*
X6085896Y-18080460D02*
X6095420Y-18070936D01*
X6095420Y-18070936D02*
X6114468Y-18042365D01*
X6114468Y-18042365D02*
X6123991Y-18004270D01*
X6123991Y-18004270D02*
X6123991Y-17928079D01*
X6123991Y-17928079D02*
X6114468Y-17909031D01*
X6114468Y-17909031D02*
X6104944Y-17899508D01*
X6104944Y-17899508D02*
X6085896Y-17889984D01*
X6085896Y-17889984D02*
X6047801Y-17889984D01*
X6047801Y-17889984D02*
X6028753Y-17899508D01*
X6028753Y-17899508D02*
X6019229Y-17909031D01*
X6019229Y-17909031D02*
X6009706Y-17928079D01*
X6009706Y-17928079D02*
X6009706Y-17975698D01*
X6009706Y-17975698D02*
X6019229Y-17994746D01*
X6019229Y-17994746D02*
X6028753Y-18004270D01*
X6028753Y-18004270D02*
X6047801Y-18013793D01*
X6047801Y-18013793D02*
X6085896Y-18013793D01*
X6085896Y-18013793D02*
X6104944Y-18004270D01*
X6104944Y-18004270D02*
X6114468Y-17994746D01*
X6114468Y-17994746D02*
X6123991Y-17975698D01*
X6362087Y-18089984D02*
X6362087Y-17889984D01*
X6447801Y-18089984D02*
X6447801Y-17985222D01*
X6447801Y-17985222D02*
X6438277Y-17966174D01*
X6438277Y-17966174D02*
X6419230Y-17956650D01*
X6419230Y-17956650D02*
X6390658Y-17956650D01*
X6390658Y-17956650D02*
X6371610Y-17966174D01*
X6371610Y-17966174D02*
X6362087Y-17975698D01*
X6571610Y-18089984D02*
X6552563Y-18080460D01*
X6552563Y-18080460D02*
X6543039Y-18070936D01*
X6543039Y-18070936D02*
X6533515Y-18051889D01*
X6533515Y-18051889D02*
X6533515Y-17994746D01*
X6533515Y-17994746D02*
X6543039Y-17975698D01*
X6543039Y-17975698D02*
X6552563Y-17966174D01*
X6552563Y-17966174D02*
X6571610Y-17956650D01*
X6571610Y-17956650D02*
X6600182Y-17956650D01*
X6600182Y-17956650D02*
X6619230Y-17966174D01*
X6619230Y-17966174D02*
X6628753Y-17975698D01*
X6628753Y-17975698D02*
X6638277Y-17994746D01*
X6638277Y-17994746D02*
X6638277Y-18051889D01*
X6638277Y-18051889D02*
X6628753Y-18070936D01*
X6628753Y-18070936D02*
X6619230Y-18080460D01*
X6619230Y-18080460D02*
X6600182Y-18089984D01*
X6600182Y-18089984D02*
X6571610Y-18089984D01*
X6752563Y-18089984D02*
X6733515Y-18080460D01*
X6733515Y-18080460D02*
X6723991Y-18061412D01*
X6723991Y-18061412D02*
X6723991Y-17889984D01*
X6904944Y-18080460D02*
X6885896Y-18089984D01*
X6885896Y-18089984D02*
X6847801Y-18089984D01*
X6847801Y-18089984D02*
X6828753Y-18080460D01*
X6828753Y-18080460D02*
X6819230Y-18061412D01*
X6819230Y-18061412D02*
X6819230Y-17985222D01*
X6819230Y-17985222D02*
X6828753Y-17966174D01*
X6828753Y-17966174D02*
X6847801Y-17956650D01*
X6847801Y-17956650D02*
X6885896Y-17956650D01*
X6885896Y-17956650D02*
X6904944Y-17966174D01*
X6904944Y-17966174D02*
X6914468Y-17985222D01*
X6914468Y-17985222D02*
X6914468Y-18004270D01*
X6914468Y-18004270D02*
X6819230Y-18023317D01*
X6990658Y-18080460D02*
X7009706Y-18089984D01*
X7009706Y-18089984D02*
X7047801Y-18089984D01*
X7047801Y-18089984D02*
X7066849Y-18080460D01*
X7066849Y-18080460D02*
X7076372Y-18061412D01*
X7076372Y-18061412D02*
X7076372Y-18051889D01*
X7076372Y-18051889D02*
X7066849Y-18032841D01*
X7066849Y-18032841D02*
X7047801Y-18023317D01*
X7047801Y-18023317D02*
X7019230Y-18023317D01*
X7019230Y-18023317D02*
X7000182Y-18013793D01*
X7000182Y-18013793D02*
X6990658Y-17994746D01*
X6990658Y-17994746D02*
X6990658Y-17985222D01*
X6990658Y-17985222D02*
X7000182Y-17966174D01*
X7000182Y-17966174D02*
X7019230Y-17956650D01*
X7019230Y-17956650D02*
X7047801Y-17956650D01*
X7047801Y-17956650D02*
X7066849Y-17966174D01*
X7143039Y-18166174D02*
X7152563Y-18156650D01*
X7152563Y-18156650D02*
X7171611Y-18128079D01*
X7171611Y-18128079D02*
X7181134Y-18109031D01*
X7181134Y-18109031D02*
X7190658Y-18080460D01*
X7190658Y-18080460D02*
X7200182Y-18032841D01*
X7200182Y-18032841D02*
X7200182Y-17994746D01*
X7200182Y-17994746D02*
X7190658Y-17947127D01*
X7190658Y-17947127D02*
X7181134Y-17918555D01*
X7181134Y-17918555D02*
X7171611Y-17899508D01*
X7171611Y-17899508D02*
X7152563Y-17870936D01*
X7152563Y-17870936D02*
X7143039Y-17861412D01*
D15*
X2047500Y-18197500D02*
X2177500Y-18327500D01*
X2177500Y-18197500D02*
X2047500Y-18327500D01*
X2177500Y-18262500D02*
G75*
G02*
X2047500Y-18262500I-65000J0D01*
G01*
X2047500Y-18262500D02*
G75*
G02*
X2177500Y-18262500I65000J0D01*
G01*
D11*
X2543039Y-18353984D02*
X2428753Y-18353984D01*
X2485896Y-18353984D02*
X2485896Y-18153984D01*
X2485896Y-18153984D02*
X2466848Y-18182555D01*
X2466848Y-18182555D02*
X2447801Y-18201603D01*
X2447801Y-18201603D02*
X2428753Y-18211127D01*
X2628753Y-18334936D02*
X2638277Y-18344460D01*
X2638277Y-18344460D02*
X2628753Y-18353984D01*
X2628753Y-18353984D02*
X2619229Y-18344460D01*
X2619229Y-18344460D02*
X2628753Y-18334936D01*
X2628753Y-18334936D02*
X2628753Y-18353984D01*
X2704944Y-18153984D02*
X2828753Y-18153984D01*
X2828753Y-18153984D02*
X2762086Y-18230174D01*
X2762086Y-18230174D02*
X2790658Y-18230174D01*
X2790658Y-18230174D02*
X2809705Y-18239698D01*
X2809705Y-18239698D02*
X2819229Y-18249222D01*
X2819229Y-18249222D02*
X2828753Y-18268270D01*
X2828753Y-18268270D02*
X2828753Y-18315889D01*
X2828753Y-18315889D02*
X2819229Y-18334936D01*
X2819229Y-18334936D02*
X2809705Y-18344460D01*
X2809705Y-18344460D02*
X2790658Y-18353984D01*
X2790658Y-18353984D02*
X2733515Y-18353984D01*
X2733515Y-18353984D02*
X2714467Y-18344460D01*
X2714467Y-18344460D02*
X2704944Y-18334936D01*
X2952562Y-18153984D02*
X2971610Y-18153984D01*
X2971610Y-18153984D02*
X2990658Y-18163508D01*
X2990658Y-18163508D02*
X3000182Y-18173031D01*
X3000182Y-18173031D02*
X3009705Y-18192079D01*
X3009705Y-18192079D02*
X3019229Y-18230174D01*
X3019229Y-18230174D02*
X3019229Y-18277793D01*
X3019229Y-18277793D02*
X3009705Y-18315889D01*
X3009705Y-18315889D02*
X3000182Y-18334936D01*
X3000182Y-18334936D02*
X2990658Y-18344460D01*
X2990658Y-18344460D02*
X2971610Y-18353984D01*
X2971610Y-18353984D02*
X2952562Y-18353984D01*
X2952562Y-18353984D02*
X2933515Y-18344460D01*
X2933515Y-18344460D02*
X2923991Y-18334936D01*
X2923991Y-18334936D02*
X2914467Y-18315889D01*
X2914467Y-18315889D02*
X2904943Y-18277793D01*
X2904943Y-18277793D02*
X2904943Y-18230174D01*
X2904943Y-18230174D02*
X2914467Y-18192079D01*
X2914467Y-18192079D02*
X2923991Y-18173031D01*
X2923991Y-18173031D02*
X2933515Y-18163508D01*
X2933515Y-18163508D02*
X2952562Y-18153984D01*
X3143039Y-18153984D02*
X3162086Y-18153984D01*
X3162086Y-18153984D02*
X3181134Y-18163508D01*
X3181134Y-18163508D02*
X3190658Y-18173031D01*
X3190658Y-18173031D02*
X3200182Y-18192079D01*
X3200182Y-18192079D02*
X3209705Y-18230174D01*
X3209705Y-18230174D02*
X3209705Y-18277793D01*
X3209705Y-18277793D02*
X3200182Y-18315889D01*
X3200182Y-18315889D02*
X3190658Y-18334936D01*
X3190658Y-18334936D02*
X3181134Y-18344460D01*
X3181134Y-18344460D02*
X3162086Y-18353984D01*
X3162086Y-18353984D02*
X3143039Y-18353984D01*
X3143039Y-18353984D02*
X3123991Y-18344460D01*
X3123991Y-18344460D02*
X3114467Y-18334936D01*
X3114467Y-18334936D02*
X3104943Y-18315889D01*
X3104943Y-18315889D02*
X3095420Y-18277793D01*
X3095420Y-18277793D02*
X3095420Y-18230174D01*
X3095420Y-18230174D02*
X3104943Y-18192079D01*
X3104943Y-18192079D02*
X3114467Y-18173031D01*
X3114467Y-18173031D02*
X3123991Y-18163508D01*
X3123991Y-18163508D02*
X3143039Y-18153984D01*
X3295420Y-18353984D02*
X3295420Y-18220650D01*
X3295420Y-18239698D02*
X3304943Y-18230174D01*
X3304943Y-18230174D02*
X3323991Y-18220650D01*
X3323991Y-18220650D02*
X3352563Y-18220650D01*
X3352563Y-18220650D02*
X3371610Y-18230174D01*
X3371610Y-18230174D02*
X3381134Y-18249222D01*
X3381134Y-18249222D02*
X3381134Y-18353984D01*
X3381134Y-18249222D02*
X3390658Y-18230174D01*
X3390658Y-18230174D02*
X3409705Y-18220650D01*
X3409705Y-18220650D02*
X3438277Y-18220650D01*
X3438277Y-18220650D02*
X3457324Y-18230174D01*
X3457324Y-18230174D02*
X3466848Y-18249222D01*
X3466848Y-18249222D02*
X3466848Y-18353984D01*
X3562086Y-18353984D02*
X3562086Y-18220650D01*
X3562086Y-18239698D02*
X3571610Y-18230174D01*
X3571610Y-18230174D02*
X3590658Y-18220650D01*
X3590658Y-18220650D02*
X3619229Y-18220650D01*
X3619229Y-18220650D02*
X3638277Y-18230174D01*
X3638277Y-18230174D02*
X3647801Y-18249222D01*
X3647801Y-18249222D02*
X3647801Y-18353984D01*
X3647801Y-18249222D02*
X3657324Y-18230174D01*
X3657324Y-18230174D02*
X3676372Y-18220650D01*
X3676372Y-18220650D02*
X3704943Y-18220650D01*
X3704943Y-18220650D02*
X3723991Y-18230174D01*
X3723991Y-18230174D02*
X3733515Y-18249222D01*
X3733515Y-18249222D02*
X3733515Y-18353984D01*
X4123991Y-18144460D02*
X3952563Y-18401603D01*
X4381134Y-18153984D02*
X4400182Y-18153984D01*
X4400182Y-18153984D02*
X4419229Y-18163508D01*
X4419229Y-18163508D02*
X4428753Y-18173031D01*
X4428753Y-18173031D02*
X4438277Y-18192079D01*
X4438277Y-18192079D02*
X4447801Y-18230174D01*
X4447801Y-18230174D02*
X4447801Y-18277793D01*
X4447801Y-18277793D02*
X4438277Y-18315889D01*
X4438277Y-18315889D02*
X4428753Y-18334936D01*
X4428753Y-18334936D02*
X4419229Y-18344460D01*
X4419229Y-18344460D02*
X4400182Y-18353984D01*
X4400182Y-18353984D02*
X4381134Y-18353984D01*
X4381134Y-18353984D02*
X4362087Y-18344460D01*
X4362087Y-18344460D02*
X4352563Y-18334936D01*
X4352563Y-18334936D02*
X4343039Y-18315889D01*
X4343039Y-18315889D02*
X4333515Y-18277793D01*
X4333515Y-18277793D02*
X4333515Y-18230174D01*
X4333515Y-18230174D02*
X4343039Y-18192079D01*
X4343039Y-18192079D02*
X4352563Y-18173031D01*
X4352563Y-18173031D02*
X4362087Y-18163508D01*
X4362087Y-18163508D02*
X4381134Y-18153984D01*
X4533515Y-18334936D02*
X4543039Y-18344460D01*
X4543039Y-18344460D02*
X4533515Y-18353984D01*
X4533515Y-18353984D02*
X4523991Y-18344460D01*
X4523991Y-18344460D02*
X4533515Y-18334936D01*
X4533515Y-18334936D02*
X4533515Y-18353984D01*
X4666848Y-18153984D02*
X4685896Y-18153984D01*
X4685896Y-18153984D02*
X4704944Y-18163508D01*
X4704944Y-18163508D02*
X4714468Y-18173031D01*
X4714468Y-18173031D02*
X4723991Y-18192079D01*
X4723991Y-18192079D02*
X4733515Y-18230174D01*
X4733515Y-18230174D02*
X4733515Y-18277793D01*
X4733515Y-18277793D02*
X4723991Y-18315889D01*
X4723991Y-18315889D02*
X4714468Y-18334936D01*
X4714468Y-18334936D02*
X4704944Y-18344460D01*
X4704944Y-18344460D02*
X4685896Y-18353984D01*
X4685896Y-18353984D02*
X4666848Y-18353984D01*
X4666848Y-18353984D02*
X4647801Y-18344460D01*
X4647801Y-18344460D02*
X4638277Y-18334936D01*
X4638277Y-18334936D02*
X4628753Y-18315889D01*
X4628753Y-18315889D02*
X4619229Y-18277793D01*
X4619229Y-18277793D02*
X4619229Y-18230174D01*
X4619229Y-18230174D02*
X4628753Y-18192079D01*
X4628753Y-18192079D02*
X4638277Y-18173031D01*
X4638277Y-18173031D02*
X4647801Y-18163508D01*
X4647801Y-18163508D02*
X4666848Y-18153984D01*
X4914468Y-18153984D02*
X4819229Y-18153984D01*
X4819229Y-18153984D02*
X4809706Y-18249222D01*
X4809706Y-18249222D02*
X4819229Y-18239698D01*
X4819229Y-18239698D02*
X4838277Y-18230174D01*
X4838277Y-18230174D02*
X4885896Y-18230174D01*
X4885896Y-18230174D02*
X4904944Y-18239698D01*
X4904944Y-18239698D02*
X4914468Y-18249222D01*
X4914468Y-18249222D02*
X4923991Y-18268270D01*
X4923991Y-18268270D02*
X4923991Y-18315889D01*
X4923991Y-18315889D02*
X4914468Y-18334936D01*
X4914468Y-18334936D02*
X4904944Y-18344460D01*
X4904944Y-18344460D02*
X4885896Y-18353984D01*
X4885896Y-18353984D02*
X4838277Y-18353984D01*
X4838277Y-18353984D02*
X4819229Y-18344460D01*
X4819229Y-18344460D02*
X4809706Y-18334936D01*
X5114468Y-18353984D02*
X5000182Y-18353984D01*
X5057325Y-18353984D02*
X5057325Y-18153984D01*
X5057325Y-18153984D02*
X5038277Y-18182555D01*
X5038277Y-18182555D02*
X5019229Y-18201603D01*
X5019229Y-18201603D02*
X5000182Y-18211127D01*
X5190658Y-18173031D02*
X5200182Y-18163508D01*
X5200182Y-18163508D02*
X5219229Y-18153984D01*
X5219229Y-18153984D02*
X5266849Y-18153984D01*
X5266849Y-18153984D02*
X5285896Y-18163508D01*
X5285896Y-18163508D02*
X5295420Y-18173031D01*
X5295420Y-18173031D02*
X5304944Y-18192079D01*
X5304944Y-18192079D02*
X5304944Y-18211127D01*
X5304944Y-18211127D02*
X5295420Y-18239698D01*
X5295420Y-18239698D02*
X5181134Y-18353984D01*
X5181134Y-18353984D02*
X5304944Y-18353984D01*
X5381134Y-18153984D02*
X5381134Y-18192079D01*
X5457325Y-18153984D02*
X5457325Y-18192079D01*
X5752563Y-18430174D02*
X5743039Y-18420650D01*
X5743039Y-18420650D02*
X5723991Y-18392079D01*
X5723991Y-18392079D02*
X5714468Y-18373031D01*
X5714468Y-18373031D02*
X5704944Y-18344460D01*
X5704944Y-18344460D02*
X5695420Y-18296841D01*
X5695420Y-18296841D02*
X5695420Y-18258746D01*
X5695420Y-18258746D02*
X5704944Y-18211127D01*
X5704944Y-18211127D02*
X5714468Y-18182555D01*
X5714468Y-18182555D02*
X5723991Y-18163508D01*
X5723991Y-18163508D02*
X5743039Y-18134936D01*
X5743039Y-18134936D02*
X5752563Y-18125412D01*
X5838277Y-18353984D02*
X5876372Y-18353984D01*
X5876372Y-18353984D02*
X5895420Y-18344460D01*
X5895420Y-18344460D02*
X5904944Y-18334936D01*
X5904944Y-18334936D02*
X5923991Y-18306365D01*
X5923991Y-18306365D02*
X5933515Y-18268270D01*
X5933515Y-18268270D02*
X5933515Y-18192079D01*
X5933515Y-18192079D02*
X5923991Y-18173031D01*
X5923991Y-18173031D02*
X5914468Y-18163508D01*
X5914468Y-18163508D02*
X5895420Y-18153984D01*
X5895420Y-18153984D02*
X5857325Y-18153984D01*
X5857325Y-18153984D02*
X5838277Y-18163508D01*
X5838277Y-18163508D02*
X5828753Y-18173031D01*
X5828753Y-18173031D02*
X5819229Y-18192079D01*
X5819229Y-18192079D02*
X5819229Y-18239698D01*
X5819229Y-18239698D02*
X5828753Y-18258746D01*
X5828753Y-18258746D02*
X5838277Y-18268270D01*
X5838277Y-18268270D02*
X5857325Y-18277793D01*
X5857325Y-18277793D02*
X5895420Y-18277793D01*
X5895420Y-18277793D02*
X5914468Y-18268270D01*
X5914468Y-18268270D02*
X5923991Y-18258746D01*
X5923991Y-18258746D02*
X5933515Y-18239698D01*
X6171610Y-18353984D02*
X6171610Y-18153984D01*
X6257325Y-18353984D02*
X6257325Y-18249222D01*
X6257325Y-18249222D02*
X6247801Y-18230174D01*
X6247801Y-18230174D02*
X6228753Y-18220650D01*
X6228753Y-18220650D02*
X6200182Y-18220650D01*
X6200182Y-18220650D02*
X6181134Y-18230174D01*
X6181134Y-18230174D02*
X6171610Y-18239698D01*
X6381134Y-18353984D02*
X6362087Y-18344460D01*
X6362087Y-18344460D02*
X6352563Y-18334936D01*
X6352563Y-18334936D02*
X6343039Y-18315889D01*
X6343039Y-18315889D02*
X6343039Y-18258746D01*
X6343039Y-18258746D02*
X6352563Y-18239698D01*
X6352563Y-18239698D02*
X6362087Y-18230174D01*
X6362087Y-18230174D02*
X6381134Y-18220650D01*
X6381134Y-18220650D02*
X6409706Y-18220650D01*
X6409706Y-18220650D02*
X6428753Y-18230174D01*
X6428753Y-18230174D02*
X6438277Y-18239698D01*
X6438277Y-18239698D02*
X6447801Y-18258746D01*
X6447801Y-18258746D02*
X6447801Y-18315889D01*
X6447801Y-18315889D02*
X6438277Y-18334936D01*
X6438277Y-18334936D02*
X6428753Y-18344460D01*
X6428753Y-18344460D02*
X6409706Y-18353984D01*
X6409706Y-18353984D02*
X6381134Y-18353984D01*
X6562087Y-18353984D02*
X6543039Y-18344460D01*
X6543039Y-18344460D02*
X6533515Y-18325412D01*
X6533515Y-18325412D02*
X6533515Y-18153984D01*
X6714468Y-18344460D02*
X6695420Y-18353984D01*
X6695420Y-18353984D02*
X6657325Y-18353984D01*
X6657325Y-18353984D02*
X6638277Y-18344460D01*
X6638277Y-18344460D02*
X6628753Y-18325412D01*
X6628753Y-18325412D02*
X6628753Y-18249222D01*
X6628753Y-18249222D02*
X6638277Y-18230174D01*
X6638277Y-18230174D02*
X6657325Y-18220650D01*
X6657325Y-18220650D02*
X6695420Y-18220650D01*
X6695420Y-18220650D02*
X6714468Y-18230174D01*
X6714468Y-18230174D02*
X6723991Y-18249222D01*
X6723991Y-18249222D02*
X6723991Y-18268270D01*
X6723991Y-18268270D02*
X6628753Y-18287317D01*
X6800182Y-18344460D02*
X6819230Y-18353984D01*
X6819230Y-18353984D02*
X6857325Y-18353984D01*
X6857325Y-18353984D02*
X6876372Y-18344460D01*
X6876372Y-18344460D02*
X6885896Y-18325412D01*
X6885896Y-18325412D02*
X6885896Y-18315889D01*
X6885896Y-18315889D02*
X6876372Y-18296841D01*
X6876372Y-18296841D02*
X6857325Y-18287317D01*
X6857325Y-18287317D02*
X6828753Y-18287317D01*
X6828753Y-18287317D02*
X6809706Y-18277793D01*
X6809706Y-18277793D02*
X6800182Y-18258746D01*
X6800182Y-18258746D02*
X6800182Y-18249222D01*
X6800182Y-18249222D02*
X6809706Y-18230174D01*
X6809706Y-18230174D02*
X6828753Y-18220650D01*
X6828753Y-18220650D02*
X6857325Y-18220650D01*
X6857325Y-18220650D02*
X6876372Y-18230174D01*
X6952563Y-18430174D02*
X6962087Y-18420650D01*
X6962087Y-18420650D02*
X6981134Y-18392079D01*
X6981134Y-18392079D02*
X6990658Y-18373031D01*
X6990658Y-18373031D02*
X7000182Y-18344460D01*
X7000182Y-18344460D02*
X7009706Y-18296841D01*
X7009706Y-18296841D02*
X7009706Y-18258746D01*
X7009706Y-18258746D02*
X7000182Y-18211127D01*
X7000182Y-18211127D02*
X6990658Y-18182555D01*
X6990658Y-18182555D02*
X6981134Y-18163508D01*
X6981134Y-18163508D02*
X6962087Y-18134936D01*
X6962087Y-18134936D02*
X6952563Y-18125412D01*
M02*
