M48
; DRILL file {KiCad 8.0.3} date 2024-07-07T22:20:03-0400
; FORMAT={-:-/ absolute / inch / decimal}
; #@! TF.CreationDate,2024-07-07T22:20:03-04:00
; #@! TF.GenerationSoftware,Kicad,Pcbnew,8.0.3
; #@! TF.FileFunction,Plated,1,2,PTH
FMAT,2
INCH
; #@! TA.AperFunction,Plated,PTH,ComponentDrill
T1C0.0295
; #@! TA.AperFunction,Plated,PTH,ComponentDrill
T2C0.0315
; #@! TA.AperFunction,Plated,PTH,ComponentDrill
T3C0.0394
; #@! TA.AperFunction,Plated,PTH,ComponentDrill
T4C0.0433
; #@! TA.AperFunction,Plated,PTH,ComponentDrill
T5C0.0469
; #@! TA.AperFunction,Plated,PTH,ComponentDrill
T6C0.0512
%
G90
G05
T1
X3.7504Y-2.9291
X3.8004Y-2.9291
X3.8504Y-2.9291
X4.1547Y-3.7937
X4.2047Y-3.7937
X4.2547Y-3.7937
X4.6402Y-3.8346
X4.6902Y-3.8346
X4.7402Y-3.8346
X4.8839Y-4.564
X4.8839Y-4.614
X4.8839Y-4.664
X4.8839Y-4.9892
X4.8839Y-5.0392
X4.8839Y-5.0892
X5.576Y-3.462
X5.626Y-3.462
X5.676Y-3.462
X5.9461Y-3.4699
X5.9961Y-3.4699
X6.0461Y-3.4699
X6.3484Y-5.7057
X6.3984Y-5.7057
X6.4079Y-3.4872
X6.4484Y-5.7057
X6.4579Y-3.4872
X6.5079Y-3.4872
X6.8051Y-5.6191
X6.8051Y-5.6691
X6.8051Y-5.7191
T2
X2.248Y-1.4961
X2.2835Y-5.3071
X2.3622Y-5.3071
X2.4665Y-2.1024
X2.748Y-1.4961
X2.7657Y-0.9213
X2.7815Y-1.1811
X2.9665Y-2.1024
X3.2657Y-0.9213
X3.2815Y-1.1811
X3.6634Y-4.5669
X3.7323Y-1.063
X3.811Y-1.063
X4.0472Y-2.6476
X4.0472Y-3.1476
X4.1634Y-4.5669
X4.2756Y-2.7736
X4.2756Y-3.2736
X4.3169Y-2.0787
X4.4488Y-3.5039
X4.5197Y-2.7815
X4.5197Y-3.2815
X4.5276Y-3.5039
X4.7638Y-2.7894
X4.7638Y-3.2894
X4.8169Y-2.0787
X4.8898Y-3.5276
X4.9685Y-3.5276
X5.0079Y-2.7894
X5.0079Y-3.2894
X5.2008Y-5.5404
X5.2087Y-5.2805
X5.2165Y-4.5561
X5.2165Y-4.7923
X5.2165Y-5.0394
X5.3268Y-3.1978
X5.3268Y-3.6978
X5.3287Y-2.7156
X5.3366Y-2.4715
X5.3366Y-2.9518
X5.7008Y-5.5404
X5.7087Y-5.2805
X5.7165Y-4.5561
X5.7165Y-4.7923
X5.7165Y-5.0394
X5.8091Y-3.2037
X5.8287Y-2.7156
X5.8366Y-2.4715
X5.8366Y-2.9518
X5.9232Y-4.689
X5.9232Y-4.789
X5.9232Y-4.889
X5.9232Y-4.989
X5.9232Y-5.089
X5.9232Y-5.189
X5.9232Y-5.289
X6.2232Y-4.689
X6.2232Y-4.789
X6.2232Y-4.889
X6.2232Y-4.989
X6.2232Y-5.089
X6.2232Y-5.189
X6.2232Y-5.289
X6.3091Y-3.2037
X6.3976Y-4.5404
X6.4213Y-4.7923
X6.422Y-5.0394
X6.422Y-5.2756
X6.4705Y-3.2037
X6.8976Y-4.5404
X6.9213Y-4.7923
X6.922Y-5.0394
X6.922Y-5.2756
X6.9705Y-3.2037
T3
X2.0964Y-3.9057
X2.0964Y-4.0057
X2.0964Y-4.1057
X2.0964Y-4.2057
X2.1964Y-3.9057
X2.1964Y-4.0057
X2.1964Y-4.1057
X2.1964Y-4.2057
X2.6453Y-2.8406
X2.6453Y-2.9406
X2.6453Y-3.0406
X2.6453Y-3.1406
X2.6453Y-3.2406
X2.6453Y-3.3406
X2.6453Y-3.4406
X2.6453Y-3.5406
X2.6453Y-3.6406
X2.6453Y-3.7406
X2.6453Y-3.8406
X2.6453Y-3.9406
X2.6453Y-4.0406
X2.6453Y-4.1406
X2.6453Y-4.2406
X3.2453Y-2.8406
X3.2453Y-2.9406
X3.2453Y-3.0406
X3.2453Y-3.1406
X3.2453Y-3.2406
X3.2453Y-3.3406
X3.2453Y-3.4406
X3.2453Y-3.5406
X3.2453Y-3.6406
X3.2453Y-3.7406
X3.2453Y-3.8406
X3.2453Y-3.9406
X3.2453Y-4.0406
X3.2453Y-4.1406
X3.2453Y-4.2406
T4
X2.9732Y-1.4646
X3.0732Y-1.4646
X3.1732Y-1.4646
X3.5165Y-1.4488
X3.6165Y-1.4488
X3.7165Y-1.4488
X4.126Y-1.0315
X4.126Y-1.1315
X4.126Y-1.2315
X4.152Y-1.8246
X4.2183Y-4.1598
X4.2183Y-4.2598
X4.2183Y-4.3598
X4.252Y-1.8246
X4.352Y-1.8246
X4.774Y-1.8167
X4.874Y-1.8167
X4.974Y-1.8167
T5
X2.0362Y-2.4331
X2.1362Y-2.4331
X2.2362Y-2.4331
X2.4854Y-1.1291
X2.4854Y-1.2291
X2.7661Y-2.4102
X2.8661Y-2.4102
X2.9661Y-2.4102
X3.4252Y-1.0472
X3.5252Y-1.0472
X3.6063Y-3.1276
X3.6063Y-3.2276
X3.6063Y-3.3276
X3.6063Y-3.4276
X3.6063Y-3.5276
X3.6063Y-3.6276
X3.6063Y-3.7276
X3.6063Y-3.8276
X3.6063Y-3.9276
X4.5433Y-4.2071
X4.5433Y-4.3071
X4.6425Y-2.4409
X4.7425Y-2.4409
X4.8425Y-2.4409
X4.9425Y-2.4409
X5.3272Y-5.8947
X5.4272Y-5.8947
X5.5272Y-5.8947
X5.6272Y-5.8947
X5.8283Y-5.9033
X5.9283Y-5.9033
X6.0283Y-5.9033
X6.1283Y-5.9033
X6.1693Y-2.1825
X6.1693Y-2.2825
X6.1693Y-2.5211
X6.1693Y-2.6211
X6.1772Y-2.8494
X6.1772Y-2.9494
T6
X5.5118Y-3.7746
X5.6102Y-4.1683
X5.7087Y-3.7746
X5.9685Y-3.814
X5.9685Y-4.0108
X6.3622Y-3.9124
X6.6063Y-3.7982
X6.6063Y-3.9951
X7.0Y-3.8967
M30
